0
SECTION
2
HEADER
9
$ACADVER
1
AC1008
9
$UCSORG
10
0.0
20
0.0
30
0.0
9
$UCSXDIR
10
1.0
20
0.0
30
0.0
9
$TILEMODE
70
1
9
$UCSYDIR
10
0.0
20
1.0
30
0.0
9
$EXTMIN
10
-0.400000
20
-1.520000
30
0.000000
9
$EXTMAX
10
0.400000
20
1.520000
30
0.800000
0
ENDSEC
0
SECTION
2
TABLES
0
TABLE
2
LTYPE
70
1
0
LTYPE
2
CONTINUOUS
70
64
3
Solid line
72
65
73
0
40
0.0
0
ENDTAB
0
TABLE
2
LAYER
70
1
0
LAYER
2
ChafCaja01
70
0
62
31
6
CONTINUOUS
0
ENDTAB
0
TABLE
2
STYLE
70
1
0
STYLE
2
STANDARD
70
0
40
0.0
41
1.0
50
0.0
71
0
42
0.2
3
txt
4

0
ENDTAB
0
TABLE
2
UCS
70
0
0
ENDTAB
0
ENDSEC
0
SECTION
2
ENTITIES
0
POLYLINE
8
ChafCaja01
66
1
70
64
71
344
72
684
62
31
0
VERTEX
8
ChafCaja01
10
-0.280000
20
1.400000
30
0.800000
70
192
0
VERTEX
8
ChafCaja01
10
0.280000
20
1.400000
30
0.800000
70
192
0
VERTEX
8
ChafCaja01
10
-0.280000
20
-1.400000
30
0.800000
70
192
0
VERTEX
8
ChafCaja01
10
0.280000
20
-1.400000
30
0.800000
70
192
0
VERTEX
8
ChafCaja01
10
-0.280000
20
1.431058
30
0.795911
70
192
0
VERTEX
8
ChafCaja01
10
-0.288038
20
1.430000
30
0.795911
70
192
0
VERTEX
8
ChafCaja01
10
-0.295529
20
1.426897
30
0.795911
70
192
0
VERTEX
8
ChafCaja01
10
-0.301962
20
1.421962
30
0.795911
70
192
0
VERTEX
8
ChafCaja01
10
-0.306897
20
1.415529
30
0.795911
70
192
0
VERTEX
8
ChafCaja01
10
-0.310000
20
1.408038
30
0.795911
70
192
0
VERTEX
8
ChafCaja01
10
-0.311058
20
1.400000
30
0.795911
70
192
0
VERTEX
8
ChafCaja01
10
-0.311058
20
-1.400000
30
0.795911
70
192
0
VERTEX
8
ChafCaja01
10
-0.310000
20
-1.408038
30
0.795911
70
192
0
VERTEX
8
ChafCaja01
10
-0.306897
20
-1.415529
30
0.795911
70
192
0
VERTEX
8
ChafCaja01
10
-0.301962
20
-1.421962
30
0.795911
70
192
0
VERTEX
8
ChafCaja01
10
-0.295529
20
-1.426897
30
0.795911
70
192
0
VERTEX
8
ChafCaja01
10
-0.288038
20
-1.430000
30
0.795911
70
192
0
VERTEX
8
ChafCaja01
10
-0.280000
20
-1.431058
30
0.795911
70
192
0
VERTEX
8
ChafCaja01
10
0.280000
20
-1.431058
30
0.795911
70
192
0
VERTEX
8
ChafCaja01
10
0.288038
20
-1.430000
30
0.795911
70
192
0
VERTEX
8
ChafCaja01
10
0.295529
20
-1.426897
30
0.795911
70
192
0
VERTEX
8
ChafCaja01
10
0.301962
20
-1.421962
30
0.795911
70
192
0
VERTEX
8
ChafCaja01
10
0.306897
20
-1.415529
30
0.795911
70
192
0
VERTEX
8
ChafCaja01
10
0.310000
20
-1.408038
30
0.795911
70
192
0
VERTEX
8
ChafCaja01
10
0.311058
20
-1.400000
30
0.795911
70
192
0
VERTEX
8
ChafCaja01
10
0.311058
20
1.400000
30
0.795911
70
192
0
VERTEX
8
ChafCaja01
10
0.310000
20
1.408038
30
0.795911
70
192
0
VERTEX
8
ChafCaja01
10
0.306897
20
1.415529
30
0.795911
70
192
0
VERTEX
8
ChafCaja01
10
0.301962
20
1.421962
30
0.795911
70
192
0
VERTEX
8
ChafCaja01
10
0.295529
20
1.426897
30
0.795911
70
192
0
VERTEX
8
ChafCaja01
10
0.288038
20
1.430000
30
0.795911
70
192
0
VERTEX
8
ChafCaja01
10
0.280000
20
1.431058
30
0.795911
70
192
0
VERTEX
8
ChafCaja01
10
-0.280000
20
1.460000
30
0.783923
70
192
0
VERTEX
8
ChafCaja01
10
-0.295529
20
1.457955
30
0.783923
70
192
0
VERTEX
8
ChafCaja01
10
-0.310000
20
1.451962
30
0.783923
70
192
0
VERTEX
8
ChafCaja01
10
-0.322426
20
1.442426
30
0.783923
70
192
0
VERTEX
8
ChafCaja01
10
-0.331962
20
1.430000
30
0.783923
70
192
0
VERTEX
8
ChafCaja01
10
-0.337956
20
1.415529
30
0.783923
70
192
0
VERTEX
8
ChafCaja01
10
-0.340000
20
1.400000
30
0.783923
70
192
0
VERTEX
8
ChafCaja01
10
-0.340000
20
-1.400000
30
0.783923
70
192
0
VERTEX
8
ChafCaja01
10
-0.337956
20
-1.415529
30
0.783923
70
192
0
VERTEX
8
ChafCaja01
10
-0.331962
20
-1.430000
30
0.783923
70
192
0
VERTEX
8
ChafCaja01
10
-0.322426
20
-1.442426
30
0.783923
70
192
0
VERTEX
8
ChafCaja01
10
-0.310000
20
-1.451962
30
0.783923
70
192
0
VERTEX
8
ChafCaja01
10
-0.295529
20
-1.457955
30
0.783923
70
192
0
VERTEX
8
ChafCaja01
10
-0.280000
20
-1.460000
30
0.783923
70
192
0
VERTEX
8
ChafCaja01
10
0.280000
20
-1.460000
30
0.783923
70
192
0
VERTEX
8
ChafCaja01
10
0.295529
20
-1.457955
30
0.783923
70
192
0
VERTEX
8
ChafCaja01
10
0.310000
20
-1.451962
30
0.783923
70
192
0
VERTEX
8
ChafCaja01
10
0.322426
20
-1.442426
30
0.783923
70
192
0
VERTEX
8
ChafCaja01
10
0.331962
20
-1.430000
30
0.783923
70
192
0
VERTEX
8
ChafCaja01
10
0.337956
20
-1.415529
30
0.783923
70
192
0
VERTEX
8
ChafCaja01
10
0.340000
20
-1.400000
30
0.783923
70
192
0
VERTEX
8
ChafCaja01
10
0.340000
20
1.400000
30
0.783923
70
192
0
VERTEX
8
ChafCaja01
10
0.337956
20
1.415529
30
0.783923
70
192
0
VERTEX
8
ChafCaja01
10
0.331962
20
1.430000
30
0.783923
70
192
0
VERTEX
8
ChafCaja01
10
0.322426
20
1.442426
30
0.783923
70
192
0
VERTEX
8
ChafCaja01
10
0.310000
20
1.451962
30
0.783923
70
192
0
VERTEX
8
ChafCaja01
10
0.295529
20
1.457955
30
0.783923
70
192
0
VERTEX
8
ChafCaja01
10
0.280000
20
1.460000
30
0.783923
70
192
0
VERTEX
8
ChafCaja01
10
-0.280000
20
1.484853
30
0.764853
70
192
0
VERTEX
8
ChafCaja01
10
-0.301962
20
1.481961
30
0.764853
70
192
0
VERTEX
8
ChafCaja01
10
-0.322426
20
1.473485
30
0.764853
70
192
0
VERTEX
8
ChafCaja01
10
-0.340000
20
1.460000
30
0.764853
70
192
0
VERTEX
8
ChafCaja01
10
-0.353485
20
1.442426
30
0.764853
70
192
0
VERTEX
8
ChafCaja01
10
-0.361962
20
1.421962
30
0.764853
70
192
0
VERTEX
8
ChafCaja01
10
-0.364853
20
1.400000
30
0.764853
70
192
0
VERTEX
8
ChafCaja01
10
-0.364853
20
-1.400000
30
0.764853
70
192
0
VERTEX
8
ChafCaja01
10
-0.361962
20
-1.421962
30
0.764853
70
192
0
VERTEX
8
ChafCaja01
10
-0.353485
20
-1.442426
30
0.764853
70
192
0
VERTEX
8
ChafCaja01
10
-0.340000
20
-1.460000
30
0.764853
70
192
0
VERTEX
8
ChafCaja01
10
-0.322426
20
-1.473485
30
0.764853
70
192
0
VERTEX
8
ChafCaja01
10
-0.301962
20
-1.481961
30
0.764853
70
192
0
VERTEX
8
ChafCaja01
10
-0.280000
20
-1.484853
30
0.764853
70
192
0
VERTEX
8
ChafCaja01
10
0.280000
20
-1.484853
30
0.764853
70
192
0
VERTEX
8
ChafCaja01
10
0.301962
20
-1.481961
30
0.764853
70
192
0
VERTEX
8
ChafCaja01
10
0.322426
20
-1.473485
30
0.764853
70
192
0
VERTEX
8
ChafCaja01
10
0.340000
20
-1.460000
30
0.764853
70
192
0
VERTEX
8
ChafCaja01
10
0.353485
20
-1.442426
30
0.764853
70
192
0
VERTEX
8
ChafCaja01
10
0.361962
20
-1.421962
30
0.764853
70
192
0
VERTEX
8
ChafCaja01
10
0.364853
20
-1.400000
30
0.764853
70
192
0
VERTEX
8
ChafCaja01
10
0.364853
20
1.400000
30
0.764853
70
192
0
VERTEX
8
ChafCaja01
10
0.361962
20
1.421962
30
0.764853
70
192
0
VERTEX
8
ChafCaja01
10
0.353485
20
1.442426
30
0.764853
70
192
0
VERTEX
8
ChafCaja01
10
0.340000
20
1.460000
30
0.764853
70
192
0
VERTEX
8
ChafCaja01
10
0.322426
20
1.473485
30
0.764853
70
192
0
VERTEX
8
ChafCaja01
10
0.301962
20
1.481961
30
0.764853
70
192
0
VERTEX
8
ChafCaja01
10
0.280000
20
1.484853
30
0.764853
70
192
0
VERTEX
8
ChafCaja01
10
-0.280000
20
1.503923
30
0.740000
70
192
0
VERTEX
8
ChafCaja01
10
-0.306897
20
1.500382
30
0.740000
70
192
0
VERTEX
8
ChafCaja01
10
-0.331962
20
1.490000
30
0.740000
70
192
0
VERTEX
8
ChafCaja01
10
-0.353485
20
1.473485
30
0.740000
70
192
0
VERTEX
8
ChafCaja01
10
-0.370000
20
1.451962
30
0.740000
70
192
0
VERTEX
8
ChafCaja01
10
-0.380382
20
1.426897
30
0.740000
70
192
0
VERTEX
8
ChafCaja01
10
-0.383923
20
1.400000
30
0.740000
70
192
0
VERTEX
8
ChafCaja01
10
-0.383923
20
-1.400000
30
0.740000
70
192
0
VERTEX
8
ChafCaja01
10
-0.380382
20
-1.426897
30
0.740000
70
192
0
VERTEX
8
ChafCaja01
10
-0.370000
20
-1.451962
30
0.740000
70
192
0
VERTEX
8
ChafCaja01
10
-0.353485
20
-1.473485
30
0.740000
70
192
0
VERTEX
8
ChafCaja01
10
-0.331962
20
-1.490000
30
0.740000
70
192
0
VERTEX
8
ChafCaja01
10
-0.306897
20
-1.500382
30
0.740000
70
192
0
VERTEX
8
ChafCaja01
10
-0.280000
20
-1.503923
30
0.740000
70
192
0
VERTEX
8
ChafCaja01
10
0.280000
20
-1.503923
30
0.740000
70
192
0
VERTEX
8
ChafCaja01
10
0.306897
20
-1.500382
30
0.740000
70
192
0
VERTEX
8
ChafCaja01
10
0.331962
20
-1.490000
30
0.740000
70
192
0
VERTEX
8
ChafCaja01
10
0.353485
20
-1.473485
30
0.740000
70
192
0
VERTEX
8
ChafCaja01
10
0.370000
20
-1.451962
30
0.740000
70
192
0
VERTEX
8
ChafCaja01
10
0.380382
20
-1.426897
30
0.740000
70
192
0
VERTEX
8
ChafCaja01
10
0.383923
20
-1.400000
30
0.740000
70
192
0
VERTEX
8
ChafCaja01
10
0.383923
20
1.400000
30
0.740000
70
192
0
VERTEX
8
ChafCaja01
10
0.380382
20
1.426897
30
0.740000
70
192
0
VERTEX
8
ChafCaja01
10
0.370000
20
1.451962
30
0.740000
70
192
0
VERTEX
8
ChafCaja01
10
0.353485
20
1.473485
30
0.740000
70
192
0
VERTEX
8
ChafCaja01
10
0.331962
20
1.490000
30
0.740000
70
192
0
VERTEX
8
ChafCaja01
10
0.306897
20
1.500382
30
0.740000
70
192
0
VERTEX
8
ChafCaja01
10
0.280000
20
1.503923
30
0.740000
70
192
0
VERTEX
8
ChafCaja01
10
-0.280000
20
1.515911
30
0.711058
70
192
0
VERTEX
8
ChafCaja01
10
-0.310000
20
1.511961
30
0.711058
70
192
0
VERTEX
8
ChafCaja01
10
-0.337956
20
1.500382
30
0.711058
70
192
0
VERTEX
8
ChafCaja01
10
-0.361962
20
1.481961
30
0.711058
70
192
0
VERTEX
8
ChafCaja01
10
-0.380382
20
1.457955
30
0.711058
70
192
0
VERTEX
8
ChafCaja01
10
-0.391962
20
1.430000
30
0.711058
70
192
0
VERTEX
8
ChafCaja01
10
-0.395911
20
1.400000
30
0.711058
70
192
0
VERTEX
8
ChafCaja01
10
-0.395911
20
-1.400000
30
0.711058
70
192
0
VERTEX
8
ChafCaja01
10
-0.391962
20
-1.430000
30
0.711058
70
192
0
VERTEX
8
ChafCaja01
10
-0.380382
20
-1.457955
30
0.711058
70
192
0
VERTEX
8
ChafCaja01
10
-0.361962
20
-1.481961
30
0.711058
70
192
0
VERTEX
8
ChafCaja01
10
-0.337956
20
-1.500382
30
0.711058
70
192
0
VERTEX
8
ChafCaja01
10
-0.310000
20
-1.511961
30
0.711058
70
192
0
VERTEX
8
ChafCaja01
10
-0.280000
20
-1.515911
30
0.711058
70
192
0
VERTEX
8
ChafCaja01
10
0.280000
20
-1.515911
30
0.711058
70
192
0
VERTEX
8
ChafCaja01
10
0.310000
20
-1.511961
30
0.711058
70
192
0
VERTEX
8
ChafCaja01
10
0.337956
20
-1.500382
30
0.711058
70
192
0
VERTEX
8
ChafCaja01
10
0.361962
20
-1.481961
30
0.711058
70
192
0
VERTEX
8
ChafCaja01
10
0.380382
20
-1.457955
30
0.711058
70
192
0
VERTEX
8
ChafCaja01
10
0.391962
20
-1.430000
30
0.711058
70
192
0
VERTEX
8
ChafCaja01
10
0.395911
20
-1.400000
30
0.711058
70
192
0
VERTEX
8
ChafCaja01
10
0.395911
20
1.400000
30
0.711058
70
192
0
VERTEX
8
ChafCaja01
10
0.391962
20
1.430000
30
0.711058
70
192
0
VERTEX
8
ChafCaja01
10
0.380382
20
1.457955
30
0.711058
70
192
0
VERTEX
8
ChafCaja01
10
0.361962
20
1.481961
30
0.711058
70
192
0
VERTEX
8
ChafCaja01
10
0.337956
20
1.500382
30
0.711058
70
192
0
VERTEX
8
ChafCaja01
10
0.310000
20
1.511961
30
0.711058
70
192
0
VERTEX
8
ChafCaja01
10
0.280000
20
1.515911
30
0.711058
70
192
0
VERTEX
8
ChafCaja01
10
-0.280000
20
1.520000
30
0.680000
70
192
0
VERTEX
8
ChafCaja01
10
-0.311058
20
1.515911
30
0.680000
70
192
0
VERTEX
8
ChafCaja01
10
-0.340000
20
1.503923
30
0.680000
70
192
0
VERTEX
8
ChafCaja01
10
-0.364853
20
1.484853
30
0.680000
70
192
0
VERTEX
8
ChafCaja01
10
-0.383923
20
1.460000
30
0.680000
70
192
0
VERTEX
8
ChafCaja01
10
-0.395911
20
1.431058
30
0.680000
70
192
0
VERTEX
8
ChafCaja01
10
-0.400000
20
1.400000
30
0.680000
70
192
0
VERTEX
8
ChafCaja01
10
-0.400000
20
-1.400000
30
0.680000
70
192
0
VERTEX
8
ChafCaja01
10
-0.395911
20
-1.431058
30
0.680000
70
192
0
VERTEX
8
ChafCaja01
10
-0.383923
20
-1.460000
30
0.680000
70
192
0
VERTEX
8
ChafCaja01
10
-0.364853
20
-1.484853
30
0.680000
70
192
0
VERTEX
8
ChafCaja01
10
-0.340000
20
-1.503923
30
0.680000
70
192
0
VERTEX
8
ChafCaja01
10
-0.311058
20
-1.515911
30
0.680000
70
192
0
VERTEX
8
ChafCaja01
10
-0.280000
20
-1.520000
30
0.680000
70
192
0
VERTEX
8
ChafCaja01
10
0.280000
20
-1.520000
30
0.680000
70
192
0
VERTEX
8
ChafCaja01
10
0.311058
20
-1.515911
30
0.680000
70
192
0
VERTEX
8
ChafCaja01
10
0.340000
20
-1.503923
30
0.680000
70
192
0
VERTEX
8
ChafCaja01
10
0.364853
20
-1.484853
30
0.680000
70
192
0
VERTEX
8
ChafCaja01
10
0.383923
20
-1.460000
30
0.680000
70
192
0
VERTEX
8
ChafCaja01
10
0.395911
20
-1.431058
30
0.680000
70
192
0
VERTEX
8
ChafCaja01
10
0.400000
20
-1.400000
30
0.680000
70
192
0
VERTEX
8
ChafCaja01
10
0.400000
20
1.400000
30
0.680000
70
192
0
VERTEX
8
ChafCaja01
10
0.395911
20
1.431058
30
0.680000
70
192
0
VERTEX
8
ChafCaja01
10
0.383923
20
1.460000
30
0.680000
70
192
0
VERTEX
8
ChafCaja01
10
0.364853
20
1.484853
30
0.680000
70
192
0
VERTEX
8
ChafCaja01
10
0.340000
20
1.503923
30
0.680000
70
192
0
VERTEX
8
ChafCaja01
10
0.311058
20
1.515911
30
0.680000
70
192
0
VERTEX
8
ChafCaja01
10
0.280000
20
1.520000
30
0.680000
70
192
0
VERTEX
8
ChafCaja01
10
-0.280000
20
1.520000
30
0.120000
70
192
0
VERTEX
8
ChafCaja01
10
-0.311058
20
1.515911
30
0.120000
70
192
0
VERTEX
8
ChafCaja01
10
-0.340000
20
1.503923
30
0.120000
70
192
0
VERTEX
8
ChafCaja01
10
-0.364853
20
1.484853
30
0.120000
70
192
0
VERTEX
8
ChafCaja01
10
-0.383923
20
1.460000
30
0.120000
70
192
0
VERTEX
8
ChafCaja01
10
-0.395911
20
1.431058
30
0.120000
70
192
0
VERTEX
8
ChafCaja01
10
-0.400000
20
1.400000
30
0.120000
70
192
0
VERTEX
8
ChafCaja01
10
-0.400000
20
-1.400000
30
0.120000
70
192
0
VERTEX
8
ChafCaja01
10
-0.395911
20
-1.431058
30
0.120000
70
192
0
VERTEX
8
ChafCaja01
10
-0.383923
20
-1.460000
30
0.120000
70
192
0
VERTEX
8
ChafCaja01
10
-0.364853
20
-1.484853
30
0.120000
70
192
0
VERTEX
8
ChafCaja01
10
-0.340000
20
-1.503923
30
0.120000
70
192
0
VERTEX
8
ChafCaja01
10
-0.311058
20
-1.515911
30
0.120000
70
192
0
VERTEX
8
ChafCaja01
10
-0.280000
20
-1.520000
30
0.120000
70
192
0
VERTEX
8
ChafCaja01
10
0.280000
20
-1.520000
30
0.120000
70
192
0
VERTEX
8
ChafCaja01
10
0.311058
20
-1.515911
30
0.120000
70
192
0
VERTEX
8
ChafCaja01
10
0.340000
20
-1.503923
30
0.120000
70
192
0
VERTEX
8
ChafCaja01
10
0.364853
20
-1.484853
30
0.120000
70
192
0
VERTEX
8
ChafCaja01
10
0.383923
20
-1.460000
30
0.120000
70
192
0
VERTEX
8
ChafCaja01
10
0.395911
20
-1.431058
30
0.120000
70
192
0
VERTEX
8
ChafCaja01
10
0.400000
20
-1.400000
30
0.120000
70
192
0
VERTEX
8
ChafCaja01
10
0.400000
20
1.400000
30
0.120000
70
192
0
VERTEX
8
ChafCaja01
10
0.395911
20
1.431058
30
0.120000
70
192
0
VERTEX
8
ChafCaja01
10
0.383923
20
1.460000
30
0.120000
70
192
0
VERTEX
8
ChafCaja01
10
0.364853
20
1.484853
30
0.120000
70
192
0
VERTEX
8
ChafCaja01
10
0.340000
20
1.503923
30
0.120000
70
192
0
VERTEX
8
ChafCaja01
10
0.311058
20
1.515911
30
0.120000
70
192
0
VERTEX
8
ChafCaja01
10
0.280000
20
1.520000
30
0.120000
70
192
0
VERTEX
8
ChafCaja01
10
-0.280000
20
1.515911
30
0.088942
70
192
0
VERTEX
8
ChafCaja01
10
-0.310000
20
1.511961
30
0.088942
70
192
0
VERTEX
8
ChafCaja01
10
-0.337956
20
1.500382
30
0.088942
70
192
0
VERTEX
8
ChafCaja01
10
-0.361962
20
1.481961
30
0.088942
70
192
0
VERTEX
8
ChafCaja01
10
-0.380382
20
1.457955
30
0.088942
70
192
0
VERTEX
8
ChafCaja01
10
-0.391962
20
1.430000
30
0.088942
70
192
0
VERTEX
8
ChafCaja01
10
-0.395911
20
1.400000
30
0.088942
70
192
0
VERTEX
8
ChafCaja01
10
-0.395911
20
-1.400000
30
0.088942
70
192
0
VERTEX
8
ChafCaja01
10
-0.391962
20
-1.430000
30
0.088942
70
192
0
VERTEX
8
ChafCaja01
10
-0.380382
20
-1.457955
30
0.088942
70
192
0
VERTEX
8
ChafCaja01
10
-0.361962
20
-1.481961
30
0.088942
70
192
0
VERTEX
8
ChafCaja01
10
-0.337956
20
-1.500382
30
0.088942
70
192
0
VERTEX
8
ChafCaja01
10
-0.310000
20
-1.511961
30
0.088942
70
192
0
VERTEX
8
ChafCaja01
10
-0.280000
20
-1.515911
30
0.088942
70
192
0
VERTEX
8
ChafCaja01
10
0.280000
20
-1.515911
30
0.088942
70
192
0
VERTEX
8
ChafCaja01
10
0.310000
20
-1.511961
30
0.088942
70
192
0
VERTEX
8
ChafCaja01
10
0.337956
20
-1.500382
30
0.088942
70
192
0
VERTEX
8
ChafCaja01
10
0.361962
20
-1.481961
30
0.088942
70
192
0
VERTEX
8
ChafCaja01
10
0.380382
20
-1.457955
30
0.088942
70
192
0
VERTEX
8
ChafCaja01
10
0.391962
20
-1.430000
30
0.088942
70
192
0
VERTEX
8
ChafCaja01
10
0.395911
20
-1.400000
30
0.088942
70
192
0
VERTEX
8
ChafCaja01
10
0.395911
20
1.400000
30
0.088942
70
192
0
VERTEX
8
ChafCaja01
10
0.391962
20
1.430000
30
0.088942
70
192
0
VERTEX
8
ChafCaja01
10
0.380382
20
1.457955
30
0.088942
70
192
0
VERTEX
8
ChafCaja01
10
0.361962
20
1.481961
30
0.088942
70
192
0
VERTEX
8
ChafCaja01
10
0.337956
20
1.500382
30
0.088942
70
192
0
VERTEX
8
ChafCaja01
10
0.310000
20
1.511961
30
0.088942
70
192
0
VERTEX
8
ChafCaja01
10
0.280000
20
1.515911
30
0.088942
70
192
0
VERTEX
8
ChafCaja01
10
-0.280000
20
1.503923
30
0.060000
70
192
0
VERTEX
8
ChafCaja01
10
-0.306897
20
1.500382
30
0.060000
70
192
0
VERTEX
8
ChafCaja01
10
-0.331962
20
1.490000
30
0.060000
70
192
0
VERTEX
8
ChafCaja01
10
-0.353485
20
1.473485
30
0.060000
70
192
0
VERTEX
8
ChafCaja01
10
-0.370000
20
1.451962
30
0.060000
70
192
0
VERTEX
8
ChafCaja01
10
-0.380382
20
1.426897
30
0.060000
70
192
0
VERTEX
8
ChafCaja01
10
-0.383923
20
1.400000
30
0.060000
70
192
0
VERTEX
8
ChafCaja01
10
-0.383923
20
-1.400000
30
0.060000
70
192
0
VERTEX
8
ChafCaja01
10
-0.380382
20
-1.426897
30
0.060000
70
192
0
VERTEX
8
ChafCaja01
10
-0.370000
20
-1.451962
30
0.060000
70
192
0
VERTEX
8
ChafCaja01
10
-0.353485
20
-1.473485
30
0.060000
70
192
0
VERTEX
8
ChafCaja01
10
-0.331962
20
-1.490000
30
0.060000
70
192
0
VERTEX
8
ChafCaja01
10
-0.306897
20
-1.500382
30
0.060000
70
192
0
VERTEX
8
ChafCaja01
10
-0.280000
20
-1.503923
30
0.060000
70
192
0
VERTEX
8
ChafCaja01
10
0.280000
20
-1.503923
30
0.060000
70
192
0
VERTEX
8
ChafCaja01
10
0.306897
20
-1.500382
30
0.060000
70
192
0
VERTEX
8
ChafCaja01
10
0.331962
20
-1.490000
30
0.060000
70
192
0
VERTEX
8
ChafCaja01
10
0.353485
20
-1.473485
30
0.060000
70
192
0
VERTEX
8
ChafCaja01
10
0.370000
20
-1.451962
30
0.060000
70
192
0
VERTEX
8
ChafCaja01
10
0.380382
20
-1.426897
30
0.060000
70
192
0
VERTEX
8
ChafCaja01
10
0.383923
20
-1.400000
30
0.060000
70
192
0
VERTEX
8
ChafCaja01
10
0.383923
20
1.400000
30
0.060000
70
192
0
VERTEX
8
ChafCaja01
10
0.380382
20
1.426897
30
0.060000
70
192
0
VERTEX
8
ChafCaja01
10
0.370000
20
1.451962
30
0.060000
70
192
0
VERTEX
8
ChafCaja01
10
0.353485
20
1.473485
30
0.060000
70
192
0
VERTEX
8
ChafCaja01
10
0.331962
20
1.490000
30
0.060000
70
192
0
VERTEX
8
ChafCaja01
10
0.306897
20
1.500382
30
0.060000
70
192
0
VERTEX
8
ChafCaja01
10
0.280000
20
1.503923
30
0.060000
70
192
0
VERTEX
8
ChafCaja01
10
-0.280000
20
1.484853
30
0.035147
70
192
0
VERTEX
8
ChafCaja01
10
-0.301962
20
1.481961
30
0.035147
70
192
0
VERTEX
8
ChafCaja01
10
-0.322426
20
1.473485
30
0.035147
70
192
0
VERTEX
8
ChafCaja01
10
-0.340000
20
1.460000
30
0.035147
70
192
0
VERTEX
8
ChafCaja01
10
-0.353485
20
1.442426
30
0.035147
70
192
0
VERTEX
8
ChafCaja01
10
-0.361962
20
1.421962
30
0.035147
70
192
0
VERTEX
8
ChafCaja01
10
-0.364853
20
1.400000
30
0.035147
70
192
0
VERTEX
8
ChafCaja01
10
-0.364853
20
-1.400000
30
0.035147
70
192
0
VERTEX
8
ChafCaja01
10
-0.361962
20
-1.421962
30
0.035147
70
192
0
VERTEX
8
ChafCaja01
10
-0.353485
20
-1.442426
30
0.035147
70
192
0
VERTEX
8
ChafCaja01
10
-0.340000
20
-1.460000
30
0.035147
70
192
0
VERTEX
8
ChafCaja01
10
-0.322426
20
-1.473485
30
0.035147
70
192
0
VERTEX
8
ChafCaja01
10
-0.301962
20
-1.481961
30
0.035147
70
192
0
VERTEX
8
ChafCaja01
10
-0.280000
20
-1.484853
30
0.035147
70
192
0
VERTEX
8
ChafCaja01
10
0.280000
20
-1.484853
30
0.035147
70
192
0
VERTEX
8
ChafCaja01
10
0.301962
20
-1.481961
30
0.035147
70
192
0
VERTEX
8
ChafCaja01
10
0.322426
20
-1.473485
30
0.035147
70
192
0
VERTEX
8
ChafCaja01
10
0.340000
20
-1.460000
30
0.035147
70
192
0
VERTEX
8
ChafCaja01
10
0.353485
20
-1.442426
30
0.035147
70
192
0
VERTEX
8
ChafCaja01
10
0.361962
20
-1.421962
30
0.035147
70
192
0
VERTEX
8
ChafCaja01
10
0.364853
20
-1.400000
30
0.035147
70
192
0
VERTEX
8
ChafCaja01
10
0.364853
20
1.400000
30
0.035147
70
192
0
VERTEX
8
ChafCaja01
10
0.361962
20
1.421962
30
0.035147
70
192
0
VERTEX
8
ChafCaja01
10
0.353485
20
1.442426
30
0.035147
70
192
0
VERTEX
8
ChafCaja01
10
0.340000
20
1.460000
30
0.035147
70
192
0
VERTEX
8
ChafCaja01
10
0.322426
20
1.473485
30
0.035147
70
192
0
VERTEX
8
ChafCaja01
10
0.301962
20
1.481961
30
0.035147
70
192
0
VERTEX
8
ChafCaja01
10
0.280000
20
1.484853
30
0.035147
70
192
0
VERTEX
8
ChafCaja01
10
-0.280000
20
1.460000
30
0.016077
70
192
0
VERTEX
8
ChafCaja01
10
-0.295529
20
1.457955
30
0.016077
70
192
0
VERTEX
8
ChafCaja01
10
-0.310000
20
1.451962
30
0.016077
70
192
0
VERTEX
8
ChafCaja01
10
-0.322426
20
1.442426
30
0.016077
70
192
0
VERTEX
8
ChafCaja01
10
-0.331962
20
1.430000
30
0.016077
70
192
0
VERTEX
8
ChafCaja01
10
-0.337956
20
1.415529
30
0.016077
70
192
0
VERTEX
8
ChafCaja01
10
-0.340000
20
1.400000
30
0.016077
70
192
0
VERTEX
8
ChafCaja01
10
-0.340000
20
-1.400000
30
0.016077
70
192
0
VERTEX
8
ChafCaja01
10
-0.337956
20
-1.415529
30
0.016077
70
192
0
VERTEX
8
ChafCaja01
10
-0.331962
20
-1.430000
30
0.016077
70
192
0
VERTEX
8
ChafCaja01
10
-0.322426
20
-1.442426
30
0.016077
70
192
0
VERTEX
8
ChafCaja01
10
-0.310000
20
-1.451962
30
0.016077
70
192
0
VERTEX
8
ChafCaja01
10
-0.295529
20
-1.457955
30
0.016077
70
192
0
VERTEX
8
ChafCaja01
10
-0.280000
20
-1.460000
30
0.016077
70
192
0
VERTEX
8
ChafCaja01
10
0.280000
20
-1.460000
30
0.016077
70
192
0
VERTEX
8
ChafCaja01
10
0.295529
20
-1.457955
30
0.016077
70
192
0
VERTEX
8
ChafCaja01
10
0.310000
20
-1.451962
30
0.016077
70
192
0
VERTEX
8
ChafCaja01
10
0.322426
20
-1.442426
30
0.016077
70
192
0
VERTEX
8
ChafCaja01
10
0.331962
20
-1.430000
30
0.016077
70
192
0
VERTEX
8
ChafCaja01
10
0.337956
20
-1.415529
30
0.016077
70
192
0
VERTEX
8
ChafCaja01
10
0.340000
20
-1.400000
30
0.016077
70
192
0
VERTEX
8
ChafCaja01
10
0.340000
20
1.400000
30
0.016077
70
192
0
VERTEX
8
ChafCaja01
10
0.337956
20
1.415529
30
0.016077
70
192
0
VERTEX
8
ChafCaja01
10
0.331962
20
1.430000
30
0.016077
70
192
0
VERTEX
8
ChafCaja01
10
0.322426
20
1.442426
30
0.016077
70
192
0
VERTEX
8
ChafCaja01
10
0.310000
20
1.451962
30
0.016077
70
192
0
VERTEX
8
ChafCaja01
10
0.295529
20
1.457955
30
0.016077
70
192
0
VERTEX
8
ChafCaja01
10
0.280000
20
1.460000
30
0.016077
70
192
0
VERTEX
8
ChafCaja01
10
-0.280000
20
1.431058
30
0.004089
70
192
0
VERTEX
8
ChafCaja01
10
-0.288038
20
1.430000
30
0.004089
70
192
0
VERTEX
8
ChafCaja01
10
-0.295529
20
1.426897
30
0.004089
70
192
0
VERTEX
8
ChafCaja01
10
-0.301962
20
1.421962
30
0.004089
70
192
0
VERTEX
8
ChafCaja01
10
-0.306897
20
1.415529
30
0.004089
70
192
0
VERTEX
8
ChafCaja01
10
-0.310000
20
1.408038
30
0.004089
70
192
0
VERTEX
8
ChafCaja01
10
-0.311058
20
1.400000
30
0.004089
70
192
0
VERTEX
8
ChafCaja01
10
-0.311058
20
-1.400000
30
0.004089
70
192
0
VERTEX
8
ChafCaja01
10
-0.310000
20
-1.408038
30
0.004089
70
192
0
VERTEX
8
ChafCaja01
10
-0.306897
20
-1.415529
30
0.004089
70
192
0
VERTEX
8
ChafCaja01
10
-0.301962
20
-1.421962
30
0.004089
70
192
0
VERTEX
8
ChafCaja01
10
-0.295529
20
-1.426897
30
0.004089
70
192
0
VERTEX
8
ChafCaja01
10
-0.288038
20
-1.430000
30
0.004089
70
192
0
VERTEX
8
ChafCaja01
10
-0.280000
20
-1.431058
30
0.004089
70
192
0
VERTEX
8
ChafCaja01
10
0.280000
20
-1.431058
30
0.004089
70
192
0
VERTEX
8
ChafCaja01
10
0.288038
20
-1.430000
30
0.004089
70
192
0
VERTEX
8
ChafCaja01
10
0.295529
20
-1.426897
30
0.004089
70
192
0
VERTEX
8
ChafCaja01
10
0.301962
20
-1.421962
30
0.004089
70
192
0
VERTEX
8
ChafCaja01
10
0.306897
20
-1.415529
30
0.004089
70
192
0
VERTEX
8
ChafCaja01
10
0.310000
20
-1.408038
30
0.004089
70
192
0
VERTEX
8
ChafCaja01
10
0.311058
20
-1.400000
30
0.004089
70
192
0
VERTEX
8
ChafCaja01
10
0.311058
20
1.400000
30
0.004089
70
192
0
VERTEX
8
ChafCaja01
10
0.310000
20
1.408038
30
0.004089
70
192
0
VERTEX
8
ChafCaja01
10
0.306897
20
1.415529
30
0.004089
70
192
0
VERTEX
8
ChafCaja01
10
0.301962
20
1.421962
30
0.004089
70
192
0
VERTEX
8
ChafCaja01
10
0.295529
20
1.426897
30
0.004089
70
192
0
VERTEX
8
ChafCaja01
10
0.288038
20
1.430000
30
0.004089
70
192
0
VERTEX
8
ChafCaja01
10
0.280000
20
1.431058
30
0.004089
70
192
0
VERTEX
8
ChafCaja01
10
0.280000
20
-1.400000
30
0.000000
70
192
0
VERTEX
8
ChafCaja01
10
-0.280000
20
-1.400000
30
0.000000
70
192
0
VERTEX
8
ChafCaja01
10
0.280000
20
1.400000
30
0.000000
70
192
0
VERTEX
8
ChafCaja01
10
-0.280000
20
1.400000
30
0.000000
70
192
0
VERTEX
8
ChafCaja01
10
0
20
0
30
0
70
128
71
1
72
3
73
-4
0
VERTEX
8
ChafCaja01
10
0
20
0
30
0
70
128
71
-1
72
4
73
2
0
VERTEX
8
ChafCaja01
10
0
20
0
30
0
70
128
71
1
72
5
73
-6
0
VERTEX
8
ChafCaja01
10
0
20
0
30
0
70
128
71
1
72
6
73
-7
0
VERTEX
8
ChafCaja01
10
0
20
0
30
0
70
128
71
1
72
7
73
-8
0
VERTEX
8
ChafCaja01
10
0
20
0
30
0
70
128
71
1
72
8
73
-9
0
VERTEX
8
ChafCaja01
10
0
20
0
30
0
70
128
71
1
72
9
73
-10
0
VERTEX
8
ChafCaja01
10
0
20
0
30
0
70
128
71
1
72
10
73
-11
0
VERTEX
8
ChafCaja01
10
0
20
0
30
0
70
128
71
1
72
11
73
-12
0
VERTEX
8
ChafCaja01
10
0
20
0
30
0
70
128
71
-1
72
12
73
3
0
VERTEX
8
ChafCaja01
10
0
20
0
30
0
70
128
71
3
72
12
73
-13
0
VERTEX
8
ChafCaja01
10
0
20
0
30
0
70
128
71
3
72
13
73
-14
0
VERTEX
8
ChafCaja01
10
0
20
0
30
0
70
128
71
3
72
14
73
-15
0
VERTEX
8
ChafCaja01
10
0
20
0
30
0
70
128
71
3
72
15
73
-16
0
VERTEX
8
ChafCaja01
10
0
20
0
30
0
70
128
71
3
72
16
73
-17
0
VERTEX
8
ChafCaja01
10
0
20
0
30
0
70
128
71
3
72
17
73
-18
0
VERTEX
8
ChafCaja01
10
0
20
0
30
0
70
128
71
3
72
18
73
-19
0
VERTEX
8
ChafCaja01
10
0
20
0
30
0
70
128
71
-3
72
19
73
4
0
VERTEX
8
ChafCaja01
10
0
20
0
30
0
70
128
71
4
72
19
73
-20
0
VERTEX
8
ChafCaja01
10
0
20
0
30
0
70
128
71
4
72
20
73
-21
0
VERTEX
8
ChafCaja01
10
0
20
0
30
0
70
128
71
4
72
21
73
-22
0
VERTEX
8
ChafCaja01
10
0
20
0
30
0
70
128
71
4
72
22
73
-23
0
VERTEX
8
ChafCaja01
10
0
20
0
30
0
70
128
71
4
72
23
73
-24
0
VERTEX
8
ChafCaja01
10
0
20
0
30
0
70
128
71
4
72
24
73
-25
0
VERTEX
8
ChafCaja01
10
0
20
0
30
0
70
128
71
4
72
25
73
-26
0
VERTEX
8
ChafCaja01
10
0
20
0
30
0
70
128
71
-4
72
26
73
2
0
VERTEX
8
ChafCaja01
10
0
20
0
30
0
70
128
71
2
72
26
73
-27
0
VERTEX
8
ChafCaja01
10
0
20
0
30
0
70
128
71
2
72
27
73
-28
0
VERTEX
8
ChafCaja01
10
0
20
0
30
0
70
128
71
2
72
28
73
-29
0
VERTEX
8
ChafCaja01
10
0
20
0
30
0
70
128
71
2
72
29
73
-30
0
VERTEX
8
ChafCaja01
10
0
20
0
30
0
70
128
71
2
72
30
73
-31
0
VERTEX
8
ChafCaja01
10
0
20
0
30
0
70
128
71
2
72
31
73
-32
0
VERTEX
8
ChafCaja01
10
0
20
0
30
0
70
128
71
2
72
32
73
-5
0
VERTEX
8
ChafCaja01
10
0
20
0
30
0
70
128
71
-2
72
5
73
1
0
VERTEX
8
ChafCaja01
10
0
20
0
30
0
70
128
71
5
72
33
73
-34
0
VERTEX
8
ChafCaja01
10
0
20
0
30
0
70
128
71
-5
72
34
73
6
0
VERTEX
8
ChafCaja01
10
0
20
0
30
0
70
128
71
6
72
34
73
-35
0
VERTEX
8
ChafCaja01
10
0
20
0
30
0
70
128
71
-6
72
35
73
7
0
VERTEX
8
ChafCaja01
10
0
20
0
30
0
70
128
71
7
72
35
73
-36
0
VERTEX
8
ChafCaja01
10
0
20
0
30
0
70
128
71
-7
72
36
73
8
0
VERTEX
8
ChafCaja01
10
0
20
0
30
0
70
128
71
8
72
36
73
-37
0
VERTEX
8
ChafCaja01
10
0
20
0
30
0
70
128
71
-8
72
37
73
9
0
VERTEX
8
ChafCaja01
10
0
20
0
30
0
70
128
71
9
72
37
73
-38
0
VERTEX
8
ChafCaja01
10
0
20
0
30
0
70
128
71
-9
72
38
73
10
0
VERTEX
8
ChafCaja01
10
0
20
0
30
0
70
128
71
10
72
38
73
-39
0
VERTEX
8
ChafCaja01
10
0
20
0
30
0
70
128
71
-10
72
39
73
11
0
VERTEX
8
ChafCaja01
10
0
20
0
30
0
70
128
71
11
72
39
73
-40
0
VERTEX
8
ChafCaja01
10
0
20
0
30
0
70
128
71
-11
72
40
73
12
0
VERTEX
8
ChafCaja01
10
0
20
0
30
0
70
128
71
12
72
40
73
-41
0
VERTEX
8
ChafCaja01
10
0
20
0
30
0
70
128
71
-12
72
41
73
13
0
VERTEX
8
ChafCaja01
10
0
20
0
30
0
70
128
71
13
72
41
73
-42
0
VERTEX
8
ChafCaja01
10
0
20
0
30
0
70
128
71
-13
72
42
73
14
0
VERTEX
8
ChafCaja01
10
0
20
0
30
0
70
128
71
14
72
42
73
-43
0
VERTEX
8
ChafCaja01
10
0
20
0
30
0
70
128
71
-14
72
43
73
15
0
VERTEX
8
ChafCaja01
10
0
20
0
30
0
70
128
71
15
72
43
73
-44
0
VERTEX
8
ChafCaja01
10
0
20
0
30
0
70
128
71
-15
72
44
73
16
0
VERTEX
8
ChafCaja01
10
0
20
0
30
0
70
128
71
16
72
44
73
-45
0
VERTEX
8
ChafCaja01
10
0
20
0
30
0
70
128
71
-16
72
45
73
17
0
VERTEX
8
ChafCaja01
10
0
20
0
30
0
70
128
71
17
72
45
73
-46
0
VERTEX
8
ChafCaja01
10
0
20
0
30
0
70
128
71
-17
72
46
73
18
0
VERTEX
8
ChafCaja01
10
0
20
0
30
0
70
128
71
18
72
46
73
-47
0
VERTEX
8
ChafCaja01
10
0
20
0
30
0
70
128
71
-18
72
47
73
19
0
VERTEX
8
ChafCaja01
10
0
20
0
30
0
70
128
71
19
72
47
73
-48
0
VERTEX
8
ChafCaja01
10
0
20
0
30
0
70
128
71
-19
72
48
73
20
0
VERTEX
8
ChafCaja01
10
0
20
0
30
0
70
128
71
20
72
48
73
-49
0
VERTEX
8
ChafCaja01
10
0
20
0
30
0
70
128
71
-20
72
49
73
21
0
VERTEX
8
ChafCaja01
10
0
20
0
30
0
70
128
71
21
72
49
73
-50
0
VERTEX
8
ChafCaja01
10
0
20
0
30
0
70
128
71
-21
72
50
73
22
0
VERTEX
8
ChafCaja01
10
0
20
0
30
0
70
128
71
22
72
50
73
-51
0
VERTEX
8
ChafCaja01
10
0
20
0
30
0
70
128
71
-22
72
51
73
23
0
VERTEX
8
ChafCaja01
10
0
20
0
30
0
70
128
71
23
72
51
73
-52
0
VERTEX
8
ChafCaja01
10
0
20
0
30
0
70
128
71
-23
72
52
73
24
0
VERTEX
8
ChafCaja01
10
0
20
0
30
0
70
128
71
24
72
52
73
-53
0
VERTEX
8
ChafCaja01
10
0
20
0
30
0
70
128
71
-24
72
53
73
25
0
VERTEX
8
ChafCaja01
10
0
20
0
30
0
70
128
71
25
72
53
73
-54
0
VERTEX
8
ChafCaja01
10
0
20
0
30
0
70
128
71
-25
72
54
73
26
0
VERTEX
8
ChafCaja01
10
0
20
0
30
0
70
128
71
26
72
54
73
-55
0
VERTEX
8
ChafCaja01
10
0
20
0
30
0
70
128
71
-26
72
55
73
27
0
VERTEX
8
ChafCaja01
10
0
20
0
30
0
70
128
71
27
72
55
73
-56
0
VERTEX
8
ChafCaja01
10
0
20
0
30
0
70
128
71
-27
72
56
73
28
0
VERTEX
8
ChafCaja01
10
0
20
0
30
0
70
128
71
28
72
56
73
-57
0
VERTEX
8
ChafCaja01
10
0
20
0
30
0
70
128
71
-28
72
57
73
29
0
VERTEX
8
ChafCaja01
10
0
20
0
30
0
70
128
71
29
72
57
73
-58
0
VERTEX
8
ChafCaja01
10
0
20
0
30
0
70
128
71
-29
72
58
73
30
0
VERTEX
8
ChafCaja01
10
0
20
0
30
0
70
128
71
30
72
58
73
-59
0
VERTEX
8
ChafCaja01
10
0
20
0
30
0
70
128
71
-30
72
59
73
31
0
VERTEX
8
ChafCaja01
10
0
20
0
30
0
70
128
71
31
72
59
73
-60
0
VERTEX
8
ChafCaja01
10
0
20
0
30
0
70
128
71
-31
72
60
73
32
0
VERTEX
8
ChafCaja01
10
0
20
0
30
0
70
128
71
32
72
60
73
-33
0
VERTEX
8
ChafCaja01
10
0
20
0
30
0
70
128
71
-32
72
33
73
5
0
VERTEX
8
ChafCaja01
10
0
20
0
30
0
70
128
71
33
72
61
73
-62
0
VERTEX
8
ChafCaja01
10
0
20
0
30
0
70
128
71
-33
72
62
73
34
0
VERTEX
8
ChafCaja01
10
0
20
0
30
0
70
128
71
34
72
62
73
-63
0
VERTEX
8
ChafCaja01
10
0
20
0
30
0
70
128
71
-34
72
63
73
35
0
VERTEX
8
ChafCaja01
10
0
20
0
30
0
70
128
71
35
72
63
73
-64
0
VERTEX
8
ChafCaja01
10
0
20
0
30
0
70
128
71
-35
72
64
73
36
0
VERTEX
8
ChafCaja01
10
0
20
0
30
0
70
128
71
36
72
64
73
-65
0
VERTEX
8
ChafCaja01
10
0
20
0
30
0
70
128
71
-36
72
65
73
37
0
VERTEX
8
ChafCaja01
10
0
20
0
30
0
70
128
71
37
72
65
73
-66
0
VERTEX
8
ChafCaja01
10
0
20
0
30
0
70
128
71
-37
72
66
73
38
0
VERTEX
8
ChafCaja01
10
0
20
0
30
0
70
128
71
38
72
66
73
-67
0
VERTEX
8
ChafCaja01
10
0
20
0
30
0
70
128
71
-38
72
67
73
39
0
VERTEX
8
ChafCaja01
10
0
20
0
30
0
70
128
71
39
72
67
73
-68
0
VERTEX
8
ChafCaja01
10
0
20
0
30
0
70
128
71
-39
72
68
73
40
0
VERTEX
8
ChafCaja01
10
0
20
0
30
0
70
128
71
40
72
68
73
-69
0
VERTEX
8
ChafCaja01
10
0
20
0
30
0
70
128
71
-40
72
69
73
41
0
VERTEX
8
ChafCaja01
10
0
20
0
30
0
70
128
71
41
72
69
73
-70
0
VERTEX
8
ChafCaja01
10
0
20
0
30
0
70
128
71
-41
72
70
73
42
0
VERTEX
8
ChafCaja01
10
0
20
0
30
0
70
128
71
42
72
70
73
-71
0
VERTEX
8
ChafCaja01
10
0
20
0
30
0
70
128
71
-42
72
71
73
43
0
VERTEX
8
ChafCaja01
10
0
20
0
30
0
70
128
71
43
72
71
73
-72
0
VERTEX
8
ChafCaja01
10
0
20
0
30
0
70
128
71
-43
72
72
73
44
0
VERTEX
8
ChafCaja01
10
0
20
0
30
0
70
128
71
44
72
72
73
-73
0
VERTEX
8
ChafCaja01
10
0
20
0
30
0
70
128
71
-44
72
73
73
45
0
VERTEX
8
ChafCaja01
10
0
20
0
30
0
70
128
71
45
72
73
73
-74
0
VERTEX
8
ChafCaja01
10
0
20
0
30
0
70
128
71
-45
72
74
73
46
0
VERTEX
8
ChafCaja01
10
0
20
0
30
0
70
128
71
46
72
74
73
-75
0
VERTEX
8
ChafCaja01
10
0
20
0
30
0
70
128
71
-46
72
75
73
47
0
VERTEX
8
ChafCaja01
10
0
20
0
30
0
70
128
71
47
72
75
73
-76
0
VERTEX
8
ChafCaja01
10
0
20
0
30
0
70
128
71
-47
72
76
73
48
0
VERTEX
8
ChafCaja01
10
0
20
0
30
0
70
128
71
48
72
76
73
-77
0
VERTEX
8
ChafCaja01
10
0
20
0
30
0
70
128
71
-48
72
77
73
49
0
VERTEX
8
ChafCaja01
10
0
20
0
30
0
70
128
71
49
72
77
73
-78
0
VERTEX
8
ChafCaja01
10
0
20
0
30
0
70
128
71
-49
72
78
73
50
0
VERTEX
8
ChafCaja01
10
0
20
0
30
0
70
128
71
50
72
78
73
-79
0
VERTEX
8
ChafCaja01
10
0
20
0
30
0
70
128
71
-50
72
79
73
51
0
VERTEX
8
ChafCaja01
10
0
20
0
30
0
70
128
71
51
72
79
73
-80
0
VERTEX
8
ChafCaja01
10
0
20
0
30
0
70
128
71
-51
72
80
73
52
0
VERTEX
8
ChafCaja01
10
0
20
0
30
0
70
128
71
52
72
80
73
-81
0
VERTEX
8
ChafCaja01
10
0
20
0
30
0
70
128
71
-52
72
81
73
53
0
VERTEX
8
ChafCaja01
10
0
20
0
30
0
70
128
71
53
72
81
73
-82
0
VERTEX
8
ChafCaja01
10
0
20
0
30
0
70
128
71
-53
72
82
73
54
0
VERTEX
8
ChafCaja01
10
0
20
0
30
0
70
128
71
54
72
82
73
-83
0
VERTEX
8
ChafCaja01
10
0
20
0
30
0
70
128
71
-54
72
83
73
55
0
VERTEX
8
ChafCaja01
10
0
20
0
30
0
70
128
71
55
72
83
73
-84
0
VERTEX
8
ChafCaja01
10
0
20
0
30
0
70
128
71
-55
72
84
73
56
0
VERTEX
8
ChafCaja01
10
0
20
0
30
0
70
128
71
56
72
84
73
-85
0
VERTEX
8
ChafCaja01
10
0
20
0
30
0
70
128
71
-56
72
85
73
57
0
VERTEX
8
ChafCaja01
10
0
20
0
30
0
70
128
71
57
72
85
73
-86
0
VERTEX
8
ChafCaja01
10
0
20
0
30
0
70
128
71
-57
72
86
73
58
0
VERTEX
8
ChafCaja01
10
0
20
0
30
0
70
128
71
58
72
86
73
-87
0
VERTEX
8
ChafCaja01
10
0
20
0
30
0
70
128
71
-58
72
87
73
59
0
VERTEX
8
ChafCaja01
10
0
20
0
30
0
70
128
71
59
72
87
73
-88
0
VERTEX
8
ChafCaja01
10
0
20
0
30
0
70
128
71
-59
72
88
73
60
0
VERTEX
8
ChafCaja01
10
0
20
0
30
0
70
128
71
60
72
88
73
-61
0
VERTEX
8
ChafCaja01
10
0
20
0
30
0
70
128
71
-60
72
61
73
33
0
VERTEX
8
ChafCaja01
10
0
20
0
30
0
70
128
71
61
72
89
73
-90
0
VERTEX
8
ChafCaja01
10
0
20
0
30
0
70
128
71
-61
72
90
73
62
0
VERTEX
8
ChafCaja01
10
0
20
0
30
0
70
128
71
62
72
90
73
-91
0
VERTEX
8
ChafCaja01
10
0
20
0
30
0
70
128
71
-62
72
91
73
63
0
VERTEX
8
ChafCaja01
10
0
20
0
30
0
70
128
71
63
72
91
73
-92
0
VERTEX
8
ChafCaja01
10
0
20
0
30
0
70
128
71
-63
72
92
73
64
0
VERTEX
8
ChafCaja01
10
0
20
0
30
0
70
128
71
64
72
92
73
-93
0
VERTEX
8
ChafCaja01
10
0
20
0
30
0
70
128
71
-64
72
93
73
65
0
VERTEX
8
ChafCaja01
10
0
20
0
30
0
70
128
71
65
72
93
73
-94
0
VERTEX
8
ChafCaja01
10
0
20
0
30
0
70
128
71
-65
72
94
73
66
0
VERTEX
8
ChafCaja01
10
0
20
0
30
0
70
128
71
66
72
94
73
-95
0
VERTEX
8
ChafCaja01
10
0
20
0
30
0
70
128
71
-66
72
95
73
67
0
VERTEX
8
ChafCaja01
10
0
20
0
30
0
70
128
71
67
72
95
73
-96
0
VERTEX
8
ChafCaja01
10
0
20
0
30
0
70
128
71
-67
72
96
73
68
0
VERTEX
8
ChafCaja01
10
0
20
0
30
0
70
128
71
68
72
96
73
-97
0
VERTEX
8
ChafCaja01
10
0
20
0
30
0
70
128
71
-68
72
97
73
69
0
VERTEX
8
ChafCaja01
10
0
20
0
30
0
70
128
71
69
72
97
73
-98
0
VERTEX
8
ChafCaja01
10
0
20
0
30
0
70
128
71
-69
72
98
73
70
0
VERTEX
8
ChafCaja01
10
0
20
0
30
0
70
128
71
70
72
98
73
-99
0
VERTEX
8
ChafCaja01
10
0
20
0
30
0
70
128
71
-70
72
99
73
71
0
VERTEX
8
ChafCaja01
10
0
20
0
30
0
70
128
71
71
72
99
73
-100
0
VERTEX
8
ChafCaja01
10
0
20
0
30
0
70
128
71
-71
72
100
73
72
0
VERTEX
8
ChafCaja01
10
0
20
0
30
0
70
128
71
72
72
100
73
-101
0
VERTEX
8
ChafCaja01
10
0
20
0
30
0
70
128
71
-72
72
101
73
73
0
VERTEX
8
ChafCaja01
10
0
20
0
30
0
70
128
71
73
72
101
73
-102
0
VERTEX
8
ChafCaja01
10
0
20
0
30
0
70
128
71
-73
72
102
73
74
0
VERTEX
8
ChafCaja01
10
0
20
0
30
0
70
128
71
74
72
102
73
-103
0
VERTEX
8
ChafCaja01
10
0
20
0
30
0
70
128
71
-74
72
103
73
75
0
VERTEX
8
ChafCaja01
10
0
20
0
30
0
70
128
71
75
72
103
73
-104
0
VERTEX
8
ChafCaja01
10
0
20
0
30
0
70
128
71
-75
72
104
73
76
0
VERTEX
8
ChafCaja01
10
0
20
0
30
0
70
128
71
76
72
104
73
-105
0
VERTEX
8
ChafCaja01
10
0
20
0
30
0
70
128
71
-76
72
105
73
77
0
VERTEX
8
ChafCaja01
10
0
20
0
30
0
70
128
71
77
72
105
73
-106
0
VERTEX
8
ChafCaja01
10
0
20
0
30
0
70
128
71
-77
72
106
73
78
0
VERTEX
8
ChafCaja01
10
0
20
0
30
0
70
128
71
78
72
106
73
-107
0
VERTEX
8
ChafCaja01
10
0
20
0
30
0
70
128
71
-78
72
107
73
79
0
VERTEX
8
ChafCaja01
10
0
20
0
30
0
70
128
71
79
72
107
73
-108
0
VERTEX
8
ChafCaja01
10
0
20
0
30
0
70
128
71
-79
72
108
73
80
0
VERTEX
8
ChafCaja01
10
0
20
0
30
0
70
128
71
80
72
108
73
-109
0
VERTEX
8
ChafCaja01
10
0
20
0
30
0
70
128
71
-80
72
109
73
81
0
VERTEX
8
ChafCaja01
10
0
20
0
30
0
70
128
71
81
72
109
73
-110
0
VERTEX
8
ChafCaja01
10
0
20
0
30
0
70
128
71
-81
72
110
73
82
0
VERTEX
8
ChafCaja01
10
0
20
0
30
0
70
128
71
82
72
110
73
-111
0
VERTEX
8
ChafCaja01
10
0
20
0
30
0
70
128
71
-82
72
111
73
83
0
VERTEX
8
ChafCaja01
10
0
20
0
30
0
70
128
71
83
72
111
73
-112
0
VERTEX
8
ChafCaja01
10
0
20
0
30
0
70
128
71
-83
72
112
73
84
0
VERTEX
8
ChafCaja01
10
0
20
0
30
0
70
128
71
84
72
112
73
-113
0
VERTEX
8
ChafCaja01
10
0
20
0
30
0
70
128
71
-84
72
113
73
85
0
VERTEX
8
ChafCaja01
10
0
20
0
30
0
70
128
71
85
72
113
73
-114
0
VERTEX
8
ChafCaja01
10
0
20
0
30
0
70
128
71
-85
72
114
73
86
0
VERTEX
8
ChafCaja01
10
0
20
0
30
0
70
128
71
86
72
114
73
-115
0
VERTEX
8
ChafCaja01
10
0
20
0
30
0
70
128
71
-86
72
115
73
87
0
VERTEX
8
ChafCaja01
10
0
20
0
30
0
70
128
71
87
72
115
73
-116
0
VERTEX
8
ChafCaja01
10
0
20
0
30
0
70
128
71
-87
72
116
73
88
0
VERTEX
8
ChafCaja01
10
0
20
0
30
0
70
128
71
88
72
116
73
-89
0
VERTEX
8
ChafCaja01
10
0
20
0
30
0
70
128
71
-88
72
89
73
61
0
VERTEX
8
ChafCaja01
10
0
20
0
30
0
70
128
71
89
72
117
73
-118
0
VERTEX
8
ChafCaja01
10
0
20
0
30
0
70
128
71
-89
72
118
73
90
0
VERTEX
8
ChafCaja01
10
0
20
0
30
0
70
128
71
90
72
118
73
-119
0
VERTEX
8
ChafCaja01
10
0
20
0
30
0
70
128
71
-90
72
119
73
91
0
VERTEX
8
ChafCaja01
10
0
20
0
30
0
70
128
71
91
72
119
73
-120
0
VERTEX
8
ChafCaja01
10
0
20
0
30
0
70
128
71
-91
72
120
73
92
0
VERTEX
8
ChafCaja01
10
0
20
0
30
0
70
128
71
92
72
120
73
-121
0
VERTEX
8
ChafCaja01
10
0
20
0
30
0
70
128
71
-92
72
121
73
93
0
VERTEX
8
ChafCaja01
10
0
20
0
30
0
70
128
71
93
72
121
73
-122
0
VERTEX
8
ChafCaja01
10
0
20
0
30
0
70
128
71
-93
72
122
73
94
0
VERTEX
8
ChafCaja01
10
0
20
0
30
0
70
128
71
94
72
122
73
-123
0
VERTEX
8
ChafCaja01
10
0
20
0
30
0
70
128
71
-94
72
123
73
95
0
VERTEX
8
ChafCaja01
10
0
20
0
30
0
70
128
71
95
72
123
73
-124
0
VERTEX
8
ChafCaja01
10
0
20
0
30
0
70
128
71
-95
72
124
73
96
0
VERTEX
8
ChafCaja01
10
0
20
0
30
0
70
128
71
96
72
124
73
-125
0
VERTEX
8
ChafCaja01
10
0
20
0
30
0
70
128
71
-96
72
125
73
97
0
VERTEX
8
ChafCaja01
10
0
20
0
30
0
70
128
71
97
72
125
73
-126
0
VERTEX
8
ChafCaja01
10
0
20
0
30
0
70
128
71
-97
72
126
73
98
0
VERTEX
8
ChafCaja01
10
0
20
0
30
0
70
128
71
98
72
126
73
-127
0
VERTEX
8
ChafCaja01
10
0
20
0
30
0
70
128
71
-98
72
127
73
99
0
VERTEX
8
ChafCaja01
10
0
20
0
30
0
70
128
71
99
72
127
73
-128
0
VERTEX
8
ChafCaja01
10
0
20
0
30
0
70
128
71
-99
72
128
73
100
0
VERTEX
8
ChafCaja01
10
0
20
0
30
0
70
128
71
100
72
128
73
-129
0
VERTEX
8
ChafCaja01
10
0
20
0
30
0
70
128
71
-100
72
129
73
101
0
VERTEX
8
ChafCaja01
10
0
20
0
30
0
70
128
71
101
72
129
73
-130
0
VERTEX
8
ChafCaja01
10
0
20
0
30
0
70
128
71
-101
72
130
73
102
0
VERTEX
8
ChafCaja01
10
0
20
0
30
0
70
128
71
102
72
130
73
-131
0
VERTEX
8
ChafCaja01
10
0
20
0
30
0
70
128
71
-102
72
131
73
103
0
VERTEX
8
ChafCaja01
10
0
20
0
30
0
70
128
71
103
72
131
73
-132
0
VERTEX
8
ChafCaja01
10
0
20
0
30
0
70
128
71
-103
72
132
73
104
0
VERTEX
8
ChafCaja01
10
0
20
0
30
0
70
128
71
104
72
132
73
-133
0
VERTEX
8
ChafCaja01
10
0
20
0
30
0
70
128
71
-104
72
133
73
105
0
VERTEX
8
ChafCaja01
10
0
20
0
30
0
70
128
71
105
72
133
73
-134
0
VERTEX
8
ChafCaja01
10
0
20
0
30
0
70
128
71
-105
72
134
73
106
0
VERTEX
8
ChafCaja01
10
0
20
0
30
0
70
128
71
106
72
134
73
-135
0
VERTEX
8
ChafCaja01
10
0
20
0
30
0
70
128
71
-106
72
135
73
107
0
VERTEX
8
ChafCaja01
10
0
20
0
30
0
70
128
71
107
72
135
73
-136
0
VERTEX
8
ChafCaja01
10
0
20
0
30
0
70
128
71
-107
72
136
73
108
0
VERTEX
8
ChafCaja01
10
0
20
0
30
0
70
128
71
108
72
136
73
-137
0
VERTEX
8
ChafCaja01
10
0
20
0
30
0
70
128
71
-108
72
137
73
109
0
VERTEX
8
ChafCaja01
10
0
20
0
30
0
70
128
71
109
72
137
73
-138
0
VERTEX
8
ChafCaja01
10
0
20
0
30
0
70
128
71
-109
72
138
73
110
0
VERTEX
8
ChafCaja01
10
0
20
0
30
0
70
128
71
110
72
138
73
-139
0
VERTEX
8
ChafCaja01
10
0
20
0
30
0
70
128
71
-110
72
139
73
111
0
VERTEX
8
ChafCaja01
10
0
20
0
30
0
70
128
71
111
72
139
73
-140
0
VERTEX
8
ChafCaja01
10
0
20
0
30
0
70
128
71
-111
72
140
73
112
0
VERTEX
8
ChafCaja01
10
0
20
0
30
0
70
128
71
112
72
140
73
-141
0
VERTEX
8
ChafCaja01
10
0
20
0
30
0
70
128
71
-112
72
141
73
113
0
VERTEX
8
ChafCaja01
10
0
20
0
30
0
70
128
71
113
72
141
73
-142
0
VERTEX
8
ChafCaja01
10
0
20
0
30
0
70
128
71
-113
72
142
73
114
0
VERTEX
8
ChafCaja01
10
0
20
0
30
0
70
128
71
114
72
142
73
-143
0
VERTEX
8
ChafCaja01
10
0
20
0
30
0
70
128
71
-114
72
143
73
115
0
VERTEX
8
ChafCaja01
10
0
20
0
30
0
70
128
71
115
72
143
73
-144
0
VERTEX
8
ChafCaja01
10
0
20
0
30
0
70
128
71
-115
72
144
73
116
0
VERTEX
8
ChafCaja01
10
0
20
0
30
0
70
128
71
116
72
144
73
-117
0
VERTEX
8
ChafCaja01
10
0
20
0
30
0
70
128
71
-116
72
117
73
89
0
VERTEX
8
ChafCaja01
10
0
20
0
30
0
70
128
71
117
72
145
73
-146
0
VERTEX
8
ChafCaja01
10
0
20
0
30
0
70
128
71
-117
72
146
73
118
0
VERTEX
8
ChafCaja01
10
0
20
0
30
0
70
128
71
118
72
146
73
-147
0
VERTEX
8
ChafCaja01
10
0
20
0
30
0
70
128
71
-118
72
147
73
119
0
VERTEX
8
ChafCaja01
10
0
20
0
30
0
70
128
71
119
72
147
73
-148
0
VERTEX
8
ChafCaja01
10
0
20
0
30
0
70
128
71
-119
72
148
73
120
0
VERTEX
8
ChafCaja01
10
0
20
0
30
0
70
128
71
120
72
148
73
-149
0
VERTEX
8
ChafCaja01
10
0
20
0
30
0
70
128
71
-120
72
149
73
121
0
VERTEX
8
ChafCaja01
10
0
20
0
30
0
70
128
71
121
72
149
73
-150
0
VERTEX
8
ChafCaja01
10
0
20
0
30
0
70
128
71
-121
72
150
73
122
0
VERTEX
8
ChafCaja01
10
0
20
0
30
0
70
128
71
122
72
150
73
-151
0
VERTEX
8
ChafCaja01
10
0
20
0
30
0
70
128
71
-122
72
151
73
123
0
VERTEX
8
ChafCaja01
10
0
20
0
30
0
70
128
71
123
72
151
73
-152
0
VERTEX
8
ChafCaja01
10
0
20
0
30
0
70
128
71
-123
72
152
73
124
0
VERTEX
8
ChafCaja01
10
0
20
0
30
0
70
128
71
124
72
152
73
-153
0
VERTEX
8
ChafCaja01
10
0
20
0
30
0
70
128
71
-124
72
153
73
125
0
VERTEX
8
ChafCaja01
10
0
20
0
30
0
70
128
71
125
72
153
73
-154
0
VERTEX
8
ChafCaja01
10
0
20
0
30
0
70
128
71
-125
72
154
73
126
0
VERTEX
8
ChafCaja01
10
0
20
0
30
0
70
128
71
126
72
154
73
-155
0
VERTEX
8
ChafCaja01
10
0
20
0
30
0
70
128
71
-126
72
155
73
127
0
VERTEX
8
ChafCaja01
10
0
20
0
30
0
70
128
71
127
72
155
73
-156
0
VERTEX
8
ChafCaja01
10
0
20
0
30
0
70
128
71
-127
72
156
73
128
0
VERTEX
8
ChafCaja01
10
0
20
0
30
0
70
128
71
128
72
156
73
-157
0
VERTEX
8
ChafCaja01
10
0
20
0
30
0
70
128
71
-128
72
157
73
129
0
VERTEX
8
ChafCaja01
10
0
20
0
30
0
70
128
71
129
72
157
73
-158
0
VERTEX
8
ChafCaja01
10
0
20
0
30
0
70
128
71
-129
72
158
73
130
0
VERTEX
8
ChafCaja01
10
0
20
0
30
0
70
128
71
130
72
158
73
-159
0
VERTEX
8
ChafCaja01
10
0
20
0
30
0
70
128
71
-130
72
159
73
131
0
VERTEX
8
ChafCaja01
10
0
20
0
30
0
70
128
71
131
72
159
73
-160
0
VERTEX
8
ChafCaja01
10
0
20
0
30
0
70
128
71
-131
72
160
73
132
0
VERTEX
8
ChafCaja01
10
0
20
0
30
0
70
128
71
132
72
160
73
-161
0
VERTEX
8
ChafCaja01
10
0
20
0
30
0
70
128
71
-132
72
161
73
133
0
VERTEX
8
ChafCaja01
10
0
20
0
30
0
70
128
71
133
72
161
73
-162
0
VERTEX
8
ChafCaja01
10
0
20
0
30
0
70
128
71
-133
72
162
73
134
0
VERTEX
8
ChafCaja01
10
0
20
0
30
0
70
128
71
134
72
162
73
-163
0
VERTEX
8
ChafCaja01
10
0
20
0
30
0
70
128
71
-134
72
163
73
135
0
VERTEX
8
ChafCaja01
10
0
20
0
30
0
70
128
71
135
72
163
73
-164
0
VERTEX
8
ChafCaja01
10
0
20
0
30
0
70
128
71
-135
72
164
73
136
0
VERTEX
8
ChafCaja01
10
0
20
0
30
0
70
128
71
136
72
164
73
-165
0
VERTEX
8
ChafCaja01
10
0
20
0
30
0
70
128
71
-136
72
165
73
137
0
VERTEX
8
ChafCaja01
10
0
20
0
30
0
70
128
71
137
72
165
73
-166
0
VERTEX
8
ChafCaja01
10
0
20
0
30
0
70
128
71
-137
72
166
73
138
0
VERTEX
8
ChafCaja01
10
0
20
0
30
0
70
128
71
138
72
166
73
-167
0
VERTEX
8
ChafCaja01
10
0
20
0
30
0
70
128
71
-138
72
167
73
139
0
VERTEX
8
ChafCaja01
10
0
20
0
30
0
70
128
71
139
72
167
73
-168
0
VERTEX
8
ChafCaja01
10
0
20
0
30
0
70
128
71
-139
72
168
73
140
0
VERTEX
8
ChafCaja01
10
0
20
0
30
0
70
128
71
140
72
168
73
-169
0
VERTEX
8
ChafCaja01
10
0
20
0
30
0
70
128
71
-140
72
169
73
141
0
VERTEX
8
ChafCaja01
10
0
20
0
30
0
70
128
71
141
72
169
73
-170
0
VERTEX
8
ChafCaja01
10
0
20
0
30
0
70
128
71
-141
72
170
73
142
0
VERTEX
8
ChafCaja01
10
0
20
0
30
0
70
128
71
142
72
170
73
-171
0
VERTEX
8
ChafCaja01
10
0
20
0
30
0
70
128
71
-142
72
171
73
143
0
VERTEX
8
ChafCaja01
10
0
20
0
30
0
70
128
71
143
72
171
73
-172
0
VERTEX
8
ChafCaja01
10
0
20
0
30
0
70
128
71
-143
72
172
73
144
0
VERTEX
8
ChafCaja01
10
0
20
0
30
0
70
128
71
144
72
172
73
-145
0
VERTEX
8
ChafCaja01
10
0
20
0
30
0
70
128
71
-144
72
145
73
117
0
VERTEX
8
ChafCaja01
10
0
20
0
30
0
70
128
71
145
72
173
73
-174
0
VERTEX
8
ChafCaja01
10
0
20
0
30
0
70
128
71
-145
72
174
73
146
0
VERTEX
8
ChafCaja01
10
0
20
0
30
0
70
128
71
146
72
174
73
-175
0
VERTEX
8
ChafCaja01
10
0
20
0
30
0
70
128
71
-146
72
175
73
147
0
VERTEX
8
ChafCaja01
10
0
20
0
30
0
70
128
71
147
72
175
73
-176
0
VERTEX
8
ChafCaja01
10
0
20
0
30
0
70
128
71
-147
72
176
73
148
0
VERTEX
8
ChafCaja01
10
0
20
0
30
0
70
128
71
148
72
176
73
-177
0
VERTEX
8
ChafCaja01
10
0
20
0
30
0
70
128
71
-148
72
177
73
149
0
VERTEX
8
ChafCaja01
10
0
20
0
30
0
70
128
71
149
72
177
73
-178
0
VERTEX
8
ChafCaja01
10
0
20
0
30
0
70
128
71
-149
72
178
73
150
0
VERTEX
8
ChafCaja01
10
0
20
0
30
0
70
128
71
150
72
178
73
-179
0
VERTEX
8
ChafCaja01
10
0
20
0
30
0
70
128
71
-150
72
179
73
151
0
VERTEX
8
ChafCaja01
10
0
20
0
30
0
70
128
71
151
72
179
73
-180
0
VERTEX
8
ChafCaja01
10
0
20
0
30
0
70
128
71
-151
72
180
73
152
0
VERTEX
8
ChafCaja01
10
0
20
0
30
0
70
128
71
152
72
180
73
-181
0
VERTEX
8
ChafCaja01
10
0
20
0
30
0
70
128
71
-152
72
181
73
153
0
VERTEX
8
ChafCaja01
10
0
20
0
30
0
70
128
71
153
72
181
73
-182
0
VERTEX
8
ChafCaja01
10
0
20
0
30
0
70
128
71
-153
72
182
73
154
0
VERTEX
8
ChafCaja01
10
0
20
0
30
0
70
128
71
154
72
182
73
-183
0
VERTEX
8
ChafCaja01
10
0
20
0
30
0
70
128
71
-154
72
183
73
155
0
VERTEX
8
ChafCaja01
10
0
20
0
30
0
70
128
71
155
72
183
73
-184
0
VERTEX
8
ChafCaja01
10
0
20
0
30
0
70
128
71
-155
72
184
73
156
0
VERTEX
8
ChafCaja01
10
0
20
0
30
0
70
128
71
156
72
184
73
-185
0
VERTEX
8
ChafCaja01
10
0
20
0
30
0
70
128
71
-156
72
185
73
157
0
VERTEX
8
ChafCaja01
10
0
20
0
30
0
70
128
71
157
72
185
73
-186
0
VERTEX
8
ChafCaja01
10
0
20
0
30
0
70
128
71
-157
72
186
73
158
0
VERTEX
8
ChafCaja01
10
0
20
0
30
0
70
128
71
158
72
186
73
-187
0
VERTEX
8
ChafCaja01
10
0
20
0
30
0
70
128
71
-158
72
187
73
159
0
VERTEX
8
ChafCaja01
10
0
20
0
30
0
70
128
71
159
72
187
73
-188
0
VERTEX
8
ChafCaja01
10
0
20
0
30
0
70
128
71
-159
72
188
73
160
0
VERTEX
8
ChafCaja01
10
0
20
0
30
0
70
128
71
160
72
188
73
-189
0
VERTEX
8
ChafCaja01
10
0
20
0
30
0
70
128
71
-160
72
189
73
161
0
VERTEX
8
ChafCaja01
10
0
20
0
30
0
70
128
71
161
72
189
73
-190
0
VERTEX
8
ChafCaja01
10
0
20
0
30
0
70
128
71
-161
72
190
73
162
0
VERTEX
8
ChafCaja01
10
0
20
0
30
0
70
128
71
162
72
190
73
-191
0
VERTEX
8
ChafCaja01
10
0
20
0
30
0
70
128
71
-162
72
191
73
163
0
VERTEX
8
ChafCaja01
10
0
20
0
30
0
70
128
71
163
72
191
73
-192
0
VERTEX
8
ChafCaja01
10
0
20
0
30
0
70
128
71
-163
72
192
73
164
0
VERTEX
8
ChafCaja01
10
0
20
0
30
0
70
128
71
164
72
192
73
-193
0
VERTEX
8
ChafCaja01
10
0
20
0
30
0
70
128
71
-164
72
193
73
165
0
VERTEX
8
ChafCaja01
10
0
20
0
30
0
70
128
71
165
72
193
73
-194
0
VERTEX
8
ChafCaja01
10
0
20
0
30
0
70
128
71
-165
72
194
73
166
0
VERTEX
8
ChafCaja01
10
0
20
0
30
0
70
128
71
166
72
194
73
-195
0
VERTEX
8
ChafCaja01
10
0
20
0
30
0
70
128
71
-166
72
195
73
167
0
VERTEX
8
ChafCaja01
10
0
20
0
30
0
70
128
71
167
72
195
73
-196
0
VERTEX
8
ChafCaja01
10
0
20
0
30
0
70
128
71
-167
72
196
73
168
0
VERTEX
8
ChafCaja01
10
0
20
0
30
0
70
128
71
168
72
196
73
-197
0
VERTEX
8
ChafCaja01
10
0
20
0
30
0
70
128
71
-168
72
197
73
169
0
VERTEX
8
ChafCaja01
10
0
20
0
30
0
70
128
71
169
72
197
73
-198
0
VERTEX
8
ChafCaja01
10
0
20
0
30
0
70
128
71
-169
72
198
73
170
0
VERTEX
8
ChafCaja01
10
0
20
0
30
0
70
128
71
170
72
198
73
-199
0
VERTEX
8
ChafCaja01
10
0
20
0
30
0
70
128
71
-170
72
199
73
171
0
VERTEX
8
ChafCaja01
10
0
20
0
30
0
70
128
71
171
72
199
73
-200
0
VERTEX
8
ChafCaja01
10
0
20
0
30
0
70
128
71
-171
72
200
73
172
0
VERTEX
8
ChafCaja01
10
0
20
0
30
0
70
128
71
172
72
200
73
-173
0
VERTEX
8
ChafCaja01
10
0
20
0
30
0
70
128
71
-172
72
173
73
145
0
VERTEX
8
ChafCaja01
10
0
20
0
30
0
70
128
71
173
72
201
73
-202
0
VERTEX
8
ChafCaja01
10
0
20
0
30
0
70
128
71
-173
72
202
73
174
0
VERTEX
8
ChafCaja01
10
0
20
0
30
0
70
128
71
174
72
202
73
-203
0
VERTEX
8
ChafCaja01
10
0
20
0
30
0
70
128
71
-174
72
203
73
175
0
VERTEX
8
ChafCaja01
10
0
20
0
30
0
70
128
71
175
72
203
73
-204
0
VERTEX
8
ChafCaja01
10
0
20
0
30
0
70
128
71
-175
72
204
73
176
0
VERTEX
8
ChafCaja01
10
0
20
0
30
0
70
128
71
176
72
204
73
-205
0
VERTEX
8
ChafCaja01
10
0
20
0
30
0
70
128
71
-176
72
205
73
177
0
VERTEX
8
ChafCaja01
10
0
20
0
30
0
70
128
71
177
72
205
73
-206
0
VERTEX
8
ChafCaja01
10
0
20
0
30
0
70
128
71
-177
72
206
73
178
0
VERTEX
8
ChafCaja01
10
0
20
0
30
0
70
128
71
178
72
206
73
-207
0
VERTEX
8
ChafCaja01
10
0
20
0
30
0
70
128
71
-178
72
207
73
179
0
VERTEX
8
ChafCaja01
10
0
20
0
30
0
70
128
71
179
72
207
73
-208
0
VERTEX
8
ChafCaja01
10
0
20
0
30
0
70
128
71
-179
72
208
73
180
0
VERTEX
8
ChafCaja01
10
0
20
0
30
0
70
128
71
180
72
208
73
-209
0
VERTEX
8
ChafCaja01
10
0
20
0
30
0
70
128
71
-180
72
209
73
181
0
VERTEX
8
ChafCaja01
10
0
20
0
30
0
70
128
71
181
72
209
73
-210
0
VERTEX
8
ChafCaja01
10
0
20
0
30
0
70
128
71
-181
72
210
73
182
0
VERTEX
8
ChafCaja01
10
0
20
0
30
0
70
128
71
182
72
210
73
-211
0
VERTEX
8
ChafCaja01
10
0
20
0
30
0
70
128
71
-182
72
211
73
183
0
VERTEX
8
ChafCaja01
10
0
20
0
30
0
70
128
71
183
72
211
73
-212
0
VERTEX
8
ChafCaja01
10
0
20
0
30
0
70
128
71
-183
72
212
73
184
0
VERTEX
8
ChafCaja01
10
0
20
0
30
0
70
128
71
184
72
212
73
-213
0
VERTEX
8
ChafCaja01
10
0
20
0
30
0
70
128
71
-184
72
213
73
185
0
VERTEX
8
ChafCaja01
10
0
20
0
30
0
70
128
71
185
72
213
73
-214
0
VERTEX
8
ChafCaja01
10
0
20
0
30
0
70
128
71
-185
72
214
73
186
0
VERTEX
8
ChafCaja01
10
0
20
0
30
0
70
128
71
186
72
214
73
-215
0
VERTEX
8
ChafCaja01
10
0
20
0
30
0
70
128
71
-186
72
215
73
187
0
VERTEX
8
ChafCaja01
10
0
20
0
30
0
70
128
71
187
72
215
73
-216
0
VERTEX
8
ChafCaja01
10
0
20
0
30
0
70
128
71
-187
72
216
73
188
0
VERTEX
8
ChafCaja01
10
0
20
0
30
0
70
128
71
188
72
216
73
-217
0
VERTEX
8
ChafCaja01
10
0
20
0
30
0
70
128
71
-188
72
217
73
189
0
VERTEX
8
ChafCaja01
10
0
20
0
30
0
70
128
71
189
72
217
73
-218
0
VERTEX
8
ChafCaja01
10
0
20
0
30
0
70
128
71
-189
72
218
73
190
0
VERTEX
8
ChafCaja01
10
0
20
0
30
0
70
128
71
190
72
218
73
-219
0
VERTEX
8
ChafCaja01
10
0
20
0
30
0
70
128
71
-190
72
219
73
191
0
VERTEX
8
ChafCaja01
10
0
20
0
30
0
70
128
71
191
72
219
73
-220
0
VERTEX
8
ChafCaja01
10
0
20
0
30
0
70
128
71
-191
72
220
73
192
0
VERTEX
8
ChafCaja01
10
0
20
0
30
0
70
128
71
192
72
220
73
-221
0
VERTEX
8
ChafCaja01
10
0
20
0
30
0
70
128
71
-192
72
221
73
193
0
VERTEX
8
ChafCaja01
10
0
20
0
30
0
70
128
71
193
72
221
73
-222
0
VERTEX
8
ChafCaja01
10
0
20
0
30
0
70
128
71
-193
72
222
73
194
0
VERTEX
8
ChafCaja01
10
0
20
0
30
0
70
128
71
194
72
222
73
-223
0
VERTEX
8
ChafCaja01
10
0
20
0
30
0
70
128
71
-194
72
223
73
195
0
VERTEX
8
ChafCaja01
10
0
20
0
30
0
70
128
71
195
72
223
73
-224
0
VERTEX
8
ChafCaja01
10
0
20
0
30
0
70
128
71
-195
72
224
73
196
0
VERTEX
8
ChafCaja01
10
0
20
0
30
0
70
128
71
196
72
224
73
-225
0
VERTEX
8
ChafCaja01
10
0
20
0
30
0
70
128
71
-196
72
225
73
197
0
VERTEX
8
ChafCaja01
10
0
20
0
30
0
70
128
71
197
72
225
73
-226
0
VERTEX
8
ChafCaja01
10
0
20
0
30
0
70
128
71
-197
72
226
73
198
0
VERTEX
8
ChafCaja01
10
0
20
0
30
0
70
128
71
198
72
226
73
-227
0
VERTEX
8
ChafCaja01
10
0
20
0
30
0
70
128
71
-198
72
227
73
199
0
VERTEX
8
ChafCaja01
10
0
20
0
30
0
70
128
71
199
72
227
73
-228
0
VERTEX
8
ChafCaja01
10
0
20
0
30
0
70
128
71
-199
72
228
73
200
0
VERTEX
8
ChafCaja01
10
0
20
0
30
0
70
128
71
200
72
228
73
-201
0
VERTEX
8
ChafCaja01
10
0
20
0
30
0
70
128
71
-200
72
201
73
173
0
VERTEX
8
ChafCaja01
10
0
20
0
30
0
70
128
71
201
72
229
73
-230
0
VERTEX
8
ChafCaja01
10
0
20
0
30
0
70
128
71
-201
72
230
73
202
0
VERTEX
8
ChafCaja01
10
0
20
0
30
0
70
128
71
202
72
230
73
-231
0
VERTEX
8
ChafCaja01
10
0
20
0
30
0
70
128
71
-202
72
231
73
203
0
VERTEX
8
ChafCaja01
10
0
20
0
30
0
70
128
71
203
72
231
73
-232
0
VERTEX
8
ChafCaja01
10
0
20
0
30
0
70
128
71
-203
72
232
73
204
0
VERTEX
8
ChafCaja01
10
0
20
0
30
0
70
128
71
204
72
232
73
-233
0
VERTEX
8
ChafCaja01
10
0
20
0
30
0
70
128
71
-204
72
233
73
205
0
VERTEX
8
ChafCaja01
10
0
20
0
30
0
70
128
71
205
72
233
73
-234
0
VERTEX
8
ChafCaja01
10
0
20
0
30
0
70
128
71
-205
72
234
73
206
0
VERTEX
8
ChafCaja01
10
0
20
0
30
0
70
128
71
206
72
234
73
-235
0
VERTEX
8
ChafCaja01
10
0
20
0
30
0
70
128
71
-206
72
235
73
207
0
VERTEX
8
ChafCaja01
10
0
20
0
30
0
70
128
71
207
72
235
73
-236
0
VERTEX
8
ChafCaja01
10
0
20
0
30
0
70
128
71
-207
72
236
73
208
0
VERTEX
8
ChafCaja01
10
0
20
0
30
0
70
128
71
208
72
236
73
-237
0
VERTEX
8
ChafCaja01
10
0
20
0
30
0
70
128
71
-208
72
237
73
209
0
VERTEX
8
ChafCaja01
10
0
20
0
30
0
70
128
71
209
72
237
73
-238
0
VERTEX
8
ChafCaja01
10
0
20
0
30
0
70
128
71
-209
72
238
73
210
0
VERTEX
8
ChafCaja01
10
0
20
0
30
0
70
128
71
210
72
238
73
-239
0
VERTEX
8
ChafCaja01
10
0
20
0
30
0
70
128
71
-210
72
239
73
211
0
VERTEX
8
ChafCaja01
10
0
20
0
30
0
70
128
71
211
72
239
73
-240
0
VERTEX
8
ChafCaja01
10
0
20
0
30
0
70
128
71
-211
72
240
73
212
0
VERTEX
8
ChafCaja01
10
0
20
0
30
0
70
128
71
212
72
240
73
-241
0
VERTEX
8
ChafCaja01
10
0
20
0
30
0
70
128
71
-212
72
241
73
213
0
VERTEX
8
ChafCaja01
10
0
20
0
30
0
70
128
71
213
72
241
73
-242
0
VERTEX
8
ChafCaja01
10
0
20
0
30
0
70
128
71
-213
72
242
73
214
0
VERTEX
8
ChafCaja01
10
0
20
0
30
0
70
128
71
214
72
242
73
-243
0
VERTEX
8
ChafCaja01
10
0
20
0
30
0
70
128
71
-214
72
243
73
215
0
VERTEX
8
ChafCaja01
10
0
20
0
30
0
70
128
71
215
72
243
73
-244
0
VERTEX
8
ChafCaja01
10
0
20
0
30
0
70
128
71
-215
72
244
73
216
0
VERTEX
8
ChafCaja01
10
0
20
0
30
0
70
128
71
216
72
244
73
-245
0
VERTEX
8
ChafCaja01
10
0
20
0
30
0
70
128
71
-216
72
245
73
217
0
VERTEX
8
ChafCaja01
10
0
20
0
30
0
70
128
71
217
72
245
73
-246
0
VERTEX
8
ChafCaja01
10
0
20
0
30
0
70
128
71
-217
72
246
73
218
0
VERTEX
8
ChafCaja01
10
0
20
0
30
0
70
128
71
218
72
246
73
-247
0
VERTEX
8
ChafCaja01
10
0
20
0
30
0
70
128
71
-218
72
247
73
219
0
VERTEX
8
ChafCaja01
10
0
20
0
30
0
70
128
71
219
72
247
73
-248
0
VERTEX
8
ChafCaja01
10
0
20
0
30
0
70
128
71
-219
72
248
73
220
0
VERTEX
8
ChafCaja01
10
0
20
0
30
0
70
128
71
220
72
248
73
-249
0
VERTEX
8
ChafCaja01
10
0
20
0
30
0
70
128
71
-220
72
249
73
221
0
VERTEX
8
ChafCaja01
10
0
20
0
30
0
70
128
71
221
72
249
73
-250
0
VERTEX
8
ChafCaja01
10
0
20
0
30
0
70
128
71
-221
72
250
73
222
0
VERTEX
8
ChafCaja01
10
0
20
0
30
0
70
128
71
222
72
250
73
-251
0
VERTEX
8
ChafCaja01
10
0
20
0
30
0
70
128
71
-222
72
251
73
223
0
VERTEX
8
ChafCaja01
10
0
20
0
30
0
70
128
71
223
72
251
73
-252
0
VERTEX
8
ChafCaja01
10
0
20
0
30
0
70
128
71
-223
72
252
73
224
0
VERTEX
8
ChafCaja01
10
0
20
0
30
0
70
128
71
224
72
252
73
-253
0
VERTEX
8
ChafCaja01
10
0
20
0
30
0
70
128
71
-224
72
253
73
225
0
VERTEX
8
ChafCaja01
10
0
20
0
30
0
70
128
71
225
72
253
73
-254
0
VERTEX
8
ChafCaja01
10
0
20
0
30
0
70
128
71
-225
72
254
73
226
0
VERTEX
8
ChafCaja01
10
0
20
0
30
0
70
128
71
226
72
254
73
-255
0
VERTEX
8
ChafCaja01
10
0
20
0
30
0
70
128
71
-226
72
255
73
227
0
VERTEX
8
ChafCaja01
10
0
20
0
30
0
70
128
71
227
72
255
73
-256
0
VERTEX
8
ChafCaja01
10
0
20
0
30
0
70
128
71
-227
72
256
73
228
0
VERTEX
8
ChafCaja01
10
0
20
0
30
0
70
128
71
228
72
256
73
-229
0
VERTEX
8
ChafCaja01
10
0
20
0
30
0
70
128
71
-228
72
229
73
201
0
VERTEX
8
ChafCaja01
10
0
20
0
30
0
70
128
71
229
72
257
73
-258
0
VERTEX
8
ChafCaja01
10
0
20
0
30
0
70
128
71
-229
72
258
73
230
0
VERTEX
8
ChafCaja01
10
0
20
0
30
0
70
128
71
230
72
258
73
-259
0
VERTEX
8
ChafCaja01
10
0
20
0
30
0
70
128
71
-230
72
259
73
231
0
VERTEX
8
ChafCaja01
10
0
20
0
30
0
70
128
71
231
72
259
73
-260
0
VERTEX
8
ChafCaja01
10
0
20
0
30
0
70
128
71
-231
72
260
73
232
0
VERTEX
8
ChafCaja01
10
0
20
0
30
0
70
128
71
232
72
260
73
-261
0
VERTEX
8
ChafCaja01
10
0
20
0
30
0
70
128
71
-232
72
261
73
233
0
VERTEX
8
ChafCaja01
10
0
20
0
30
0
70
128
71
233
72
261
73
-262
0
VERTEX
8
ChafCaja01
10
0
20
0
30
0
70
128
71
-233
72
262
73
234
0
VERTEX
8
ChafCaja01
10
0
20
0
30
0
70
128
71
234
72
262
73
-263
0
VERTEX
8
ChafCaja01
10
0
20
0
30
0
70
128
71
-234
72
263
73
235
0
VERTEX
8
ChafCaja01
10
0
20
0
30
0
70
128
71
235
72
263
73
-264
0
VERTEX
8
ChafCaja01
10
0
20
0
30
0
70
128
71
-235
72
264
73
236
0
VERTEX
8
ChafCaja01
10
0
20
0
30
0
70
128
71
236
72
264
73
-265
0
VERTEX
8
ChafCaja01
10
0
20
0
30
0
70
128
71
-236
72
265
73
237
0
VERTEX
8
ChafCaja01
10
0
20
0
30
0
70
128
71
237
72
265
73
-266
0
VERTEX
8
ChafCaja01
10
0
20
0
30
0
70
128
71
-237
72
266
73
238
0
VERTEX
8
ChafCaja01
10
0
20
0
30
0
70
128
71
238
72
266
73
-267
0
VERTEX
8
ChafCaja01
10
0
20
0
30
0
70
128
71
-238
72
267
73
239
0
VERTEX
8
ChafCaja01
10
0
20
0
30
0
70
128
71
239
72
267
73
-268
0
VERTEX
8
ChafCaja01
10
0
20
0
30
0
70
128
71
-239
72
268
73
240
0
VERTEX
8
ChafCaja01
10
0
20
0
30
0
70
128
71
240
72
268
73
-269
0
VERTEX
8
ChafCaja01
10
0
20
0
30
0
70
128
71
-240
72
269
73
241
0
VERTEX
8
ChafCaja01
10
0
20
0
30
0
70
128
71
241
72
269
73
-270
0
VERTEX
8
ChafCaja01
10
0
20
0
30
0
70
128
71
-241
72
270
73
242
0
VERTEX
8
ChafCaja01
10
0
20
0
30
0
70
128
71
242
72
270
73
-271
0
VERTEX
8
ChafCaja01
10
0
20
0
30
0
70
128
71
-242
72
271
73
243
0
VERTEX
8
ChafCaja01
10
0
20
0
30
0
70
128
71
243
72
271
73
-272
0
VERTEX
8
ChafCaja01
10
0
20
0
30
0
70
128
71
-243
72
272
73
244
0
VERTEX
8
ChafCaja01
10
0
20
0
30
0
70
128
71
244
72
272
73
-273
0
VERTEX
8
ChafCaja01
10
0
20
0
30
0
70
128
71
-244
72
273
73
245
0
VERTEX
8
ChafCaja01
10
0
20
0
30
0
70
128
71
245
72
273
73
-274
0
VERTEX
8
ChafCaja01
10
0
20
0
30
0
70
128
71
-245
72
274
73
246
0
VERTEX
8
ChafCaja01
10
0
20
0
30
0
70
128
71
246
72
274
73
-275
0
VERTEX
8
ChafCaja01
10
0
20
0
30
0
70
128
71
-246
72
275
73
247
0
VERTEX
8
ChafCaja01
10
0
20
0
30
0
70
128
71
247
72
275
73
-276
0
VERTEX
8
ChafCaja01
10
0
20
0
30
0
70
128
71
-247
72
276
73
248
0
VERTEX
8
ChafCaja01
10
0
20
0
30
0
70
128
71
248
72
276
73
-277
0
VERTEX
8
ChafCaja01
10
0
20
0
30
0
70
128
71
-248
72
277
73
249
0
VERTEX
8
ChafCaja01
10
0
20
0
30
0
70
128
71
249
72
277
73
-278
0
VERTEX
8
ChafCaja01
10
0
20
0
30
0
70
128
71
-249
72
278
73
250
0
VERTEX
8
ChafCaja01
10
0
20
0
30
0
70
128
71
250
72
278
73
-279
0
VERTEX
8
ChafCaja01
10
0
20
0
30
0
70
128
71
-250
72
279
73
251
0
VERTEX
8
ChafCaja01
10
0
20
0
30
0
70
128
71
251
72
279
73
-280
0
VERTEX
8
ChafCaja01
10
0
20
0
30
0
70
128
71
-251
72
280
73
252
0
VERTEX
8
ChafCaja01
10
0
20
0
30
0
70
128
71
252
72
280
73
-281
0
VERTEX
8
ChafCaja01
10
0
20
0
30
0
70
128
71
-252
72
281
73
253
0
VERTEX
8
ChafCaja01
10
0
20
0
30
0
70
128
71
253
72
281
73
-282
0
VERTEX
8
ChafCaja01
10
0
20
0
30
0
70
128
71
-253
72
282
73
254
0
VERTEX
8
ChafCaja01
10
0
20
0
30
0
70
128
71
254
72
282
73
-283
0
VERTEX
8
ChafCaja01
10
0
20
0
30
0
70
128
71
-254
72
283
73
255
0
VERTEX
8
ChafCaja01
10
0
20
0
30
0
70
128
71
255
72
283
73
-284
0
VERTEX
8
ChafCaja01
10
0
20
0
30
0
70
128
71
-255
72
284
73
256
0
VERTEX
8
ChafCaja01
10
0
20
0
30
0
70
128
71
256
72
284
73
-257
0
VERTEX
8
ChafCaja01
10
0
20
0
30
0
70
128
71
-256
72
257
73
229
0
VERTEX
8
ChafCaja01
10
0
20
0
30
0
70
128
71
257
72
285
73
-286
0
VERTEX
8
ChafCaja01
10
0
20
0
30
0
70
128
71
-257
72
286
73
258
0
VERTEX
8
ChafCaja01
10
0
20
0
30
0
70
128
71
258
72
286
73
-287
0
VERTEX
8
ChafCaja01
10
0
20
0
30
0
70
128
71
-258
72
287
73
259
0
VERTEX
8
ChafCaja01
10
0
20
0
30
0
70
128
71
259
72
287
73
-288
0
VERTEX
8
ChafCaja01
10
0
20
0
30
0
70
128
71
-259
72
288
73
260
0
VERTEX
8
ChafCaja01
10
0
20
0
30
0
70
128
71
260
72
288
73
-289
0
VERTEX
8
ChafCaja01
10
0
20
0
30
0
70
128
71
-260
72
289
73
261
0
VERTEX
8
ChafCaja01
10
0
20
0
30
0
70
128
71
261
72
289
73
-290
0
VERTEX
8
ChafCaja01
10
0
20
0
30
0
70
128
71
-261
72
290
73
262
0
VERTEX
8
ChafCaja01
10
0
20
0
30
0
70
128
71
262
72
290
73
-291
0
VERTEX
8
ChafCaja01
10
0
20
0
30
0
70
128
71
-262
72
291
73
263
0
VERTEX
8
ChafCaja01
10
0
20
0
30
0
70
128
71
263
72
291
73
-292
0
VERTEX
8
ChafCaja01
10
0
20
0
30
0
70
128
71
-263
72
292
73
264
0
VERTEX
8
ChafCaja01
10
0
20
0
30
0
70
128
71
264
72
292
73
-293
0
VERTEX
8
ChafCaja01
10
0
20
0
30
0
70
128
71
-264
72
293
73
265
0
VERTEX
8
ChafCaja01
10
0
20
0
30
0
70
128
71
265
72
293
73
-294
0
VERTEX
8
ChafCaja01
10
0
20
0
30
0
70
128
71
-265
72
294
73
266
0
VERTEX
8
ChafCaja01
10
0
20
0
30
0
70
128
71
266
72
294
73
-295
0
VERTEX
8
ChafCaja01
10
0
20
0
30
0
70
128
71
-266
72
295
73
267
0
VERTEX
8
ChafCaja01
10
0
20
0
30
0
70
128
71
267
72
295
73
-296
0
VERTEX
8
ChafCaja01
10
0
20
0
30
0
70
128
71
-267
72
296
73
268
0
VERTEX
8
ChafCaja01
10
0
20
0
30
0
70
128
71
268
72
296
73
-297
0
VERTEX
8
ChafCaja01
10
0
20
0
30
0
70
128
71
-268
72
297
73
269
0
VERTEX
8
ChafCaja01
10
0
20
0
30
0
70
128
71
269
72
297
73
-298
0
VERTEX
8
ChafCaja01
10
0
20
0
30
0
70
128
71
-269
72
298
73
270
0
VERTEX
8
ChafCaja01
10
0
20
0
30
0
70
128
71
270
72
298
73
-299
0
VERTEX
8
ChafCaja01
10
0
20
0
30
0
70
128
71
-270
72
299
73
271
0
VERTEX
8
ChafCaja01
10
0
20
0
30
0
70
128
71
271
72
299
73
-300
0
VERTEX
8
ChafCaja01
10
0
20
0
30
0
70
128
71
-271
72
300
73
272
0
VERTEX
8
ChafCaja01
10
0
20
0
30
0
70
128
71
272
72
300
73
-301
0
VERTEX
8
ChafCaja01
10
0
20
0
30
0
70
128
71
-272
72
301
73
273
0
VERTEX
8
ChafCaja01
10
0
20
0
30
0
70
128
71
273
72
301
73
-302
0
VERTEX
8
ChafCaja01
10
0
20
0
30
0
70
128
71
-273
72
302
73
274
0
VERTEX
8
ChafCaja01
10
0
20
0
30
0
70
128
71
274
72
302
73
-303
0
VERTEX
8
ChafCaja01
10
0
20
0
30
0
70
128
71
-274
72
303
73
275
0
VERTEX
8
ChafCaja01
10
0
20
0
30
0
70
128
71
275
72
303
73
-304
0
VERTEX
8
ChafCaja01
10
0
20
0
30
0
70
128
71
-275
72
304
73
276
0
VERTEX
8
ChafCaja01
10
0
20
0
30
0
70
128
71
276
72
304
73
-305
0
VERTEX
8
ChafCaja01
10
0
20
0
30
0
70
128
71
-276
72
305
73
277
0
VERTEX
8
ChafCaja01
10
0
20
0
30
0
70
128
71
277
72
305
73
-306
0
VERTEX
8
ChafCaja01
10
0
20
0
30
0
70
128
71
-277
72
306
73
278
0
VERTEX
8
ChafCaja01
10
0
20
0
30
0
70
128
71
278
72
306
73
-307
0
VERTEX
8
ChafCaja01
10
0
20
0
30
0
70
128
71
-278
72
307
73
279
0
VERTEX
8
ChafCaja01
10
0
20
0
30
0
70
128
71
279
72
307
73
-308
0
VERTEX
8
ChafCaja01
10
0
20
0
30
0
70
128
71
-279
72
308
73
280
0
VERTEX
8
ChafCaja01
10
0
20
0
30
0
70
128
71
280
72
308
73
-309
0
VERTEX
8
ChafCaja01
10
0
20
0
30
0
70
128
71
-280
72
309
73
281
0
VERTEX
8
ChafCaja01
10
0
20
0
30
0
70
128
71
281
72
309
73
-310
0
VERTEX
8
ChafCaja01
10
0
20
0
30
0
70
128
71
-281
72
310
73
282
0
VERTEX
8
ChafCaja01
10
0
20
0
30
0
70
128
71
282
72
310
73
-311
0
VERTEX
8
ChafCaja01
10
0
20
0
30
0
70
128
71
-282
72
311
73
283
0
VERTEX
8
ChafCaja01
10
0
20
0
30
0
70
128
71
283
72
311
73
-312
0
VERTEX
8
ChafCaja01
10
0
20
0
30
0
70
128
71
-283
72
312
73
284
0
VERTEX
8
ChafCaja01
10
0
20
0
30
0
70
128
71
284
72
312
73
-285
0
VERTEX
8
ChafCaja01
10
0
20
0
30
0
70
128
71
-284
72
285
73
257
0
VERTEX
8
ChafCaja01
10
0
20
0
30
0
70
128
71
285
72
313
73
-314
0
VERTEX
8
ChafCaja01
10
0
20
0
30
0
70
128
71
-285
72
314
73
286
0
VERTEX
8
ChafCaja01
10
0
20
0
30
0
70
128
71
286
72
314
73
-315
0
VERTEX
8
ChafCaja01
10
0
20
0
30
0
70
128
71
-286
72
315
73
287
0
VERTEX
8
ChafCaja01
10
0
20
0
30
0
70
128
71
287
72
315
73
-316
0
VERTEX
8
ChafCaja01
10
0
20
0
30
0
70
128
71
-287
72
316
73
288
0
VERTEX
8
ChafCaja01
10
0
20
0
30
0
70
128
71
288
72
316
73
-317
0
VERTEX
8
ChafCaja01
10
0
20
0
30
0
70
128
71
-288
72
317
73
289
0
VERTEX
8
ChafCaja01
10
0
20
0
30
0
70
128
71
289
72
317
73
-318
0
VERTEX
8
ChafCaja01
10
0
20
0
30
0
70
128
71
-289
72
318
73
290
0
VERTEX
8
ChafCaja01
10
0
20
0
30
0
70
128
71
290
72
318
73
-319
0
VERTEX
8
ChafCaja01
10
0
20
0
30
0
70
128
71
-290
72
319
73
291
0
VERTEX
8
ChafCaja01
10
0
20
0
30
0
70
128
71
291
72
319
73
-320
0
VERTEX
8
ChafCaja01
10
0
20
0
30
0
70
128
71
-291
72
320
73
292
0
VERTEX
8
ChafCaja01
10
0
20
0
30
0
70
128
71
292
72
320
73
-321
0
VERTEX
8
ChafCaja01
10
0
20
0
30
0
70
128
71
-292
72
321
73
293
0
VERTEX
8
ChafCaja01
10
0
20
0
30
0
70
128
71
293
72
321
73
-322
0
VERTEX
8
ChafCaja01
10
0
20
0
30
0
70
128
71
-293
72
322
73
294
0
VERTEX
8
ChafCaja01
10
0
20
0
30
0
70
128
71
294
72
322
73
-323
0
VERTEX
8
ChafCaja01
10
0
20
0
30
0
70
128
71
-294
72
323
73
295
0
VERTEX
8
ChafCaja01
10
0
20
0
30
0
70
128
71
295
72
323
73
-324
0
VERTEX
8
ChafCaja01
10
0
20
0
30
0
70
128
71
-295
72
324
73
296
0
VERTEX
8
ChafCaja01
10
0
20
0
30
0
70
128
71
296
72
324
73
-325
0
VERTEX
8
ChafCaja01
10
0
20
0
30
0
70
128
71
-296
72
325
73
297
0
VERTEX
8
ChafCaja01
10
0
20
0
30
0
70
128
71
297
72
325
73
-326
0
VERTEX
8
ChafCaja01
10
0
20
0
30
0
70
128
71
-297
72
326
73
298
0
VERTEX
8
ChafCaja01
10
0
20
0
30
0
70
128
71
298
72
326
73
-327
0
VERTEX
8
ChafCaja01
10
0
20
0
30
0
70
128
71
-298
72
327
73
299
0
VERTEX
8
ChafCaja01
10
0
20
0
30
0
70
128
71
299
72
327
73
-328
0
VERTEX
8
ChafCaja01
10
0
20
0
30
0
70
128
71
-299
72
328
73
300
0
VERTEX
8
ChafCaja01
10
0
20
0
30
0
70
128
71
300
72
328
73
-329
0
VERTEX
8
ChafCaja01
10
0
20
0
30
0
70
128
71
-300
72
329
73
301
0
VERTEX
8
ChafCaja01
10
0
20
0
30
0
70
128
71
301
72
329
73
-330
0
VERTEX
8
ChafCaja01
10
0
20
0
30
0
70
128
71
-301
72
330
73
302
0
VERTEX
8
ChafCaja01
10
0
20
0
30
0
70
128
71
302
72
330
73
-331
0
VERTEX
8
ChafCaja01
10
0
20
0
30
0
70
128
71
-302
72
331
73
303
0
VERTEX
8
ChafCaja01
10
0
20
0
30
0
70
128
71
303
72
331
73
-332
0
VERTEX
8
ChafCaja01
10
0
20
0
30
0
70
128
71
-303
72
332
73
304
0
VERTEX
8
ChafCaja01
10
0
20
0
30
0
70
128
71
304
72
332
73
-333
0
VERTEX
8
ChafCaja01
10
0
20
0
30
0
70
128
71
-304
72
333
73
305
0
VERTEX
8
ChafCaja01
10
0
20
0
30
0
70
128
71
305
72
333
73
-334
0
VERTEX
8
ChafCaja01
10
0
20
0
30
0
70
128
71
-305
72
334
73
306
0
VERTEX
8
ChafCaja01
10
0
20
0
30
0
70
128
71
306
72
334
73
-335
0
VERTEX
8
ChafCaja01
10
0
20
0
30
0
70
128
71
-306
72
335
73
307
0
VERTEX
8
ChafCaja01
10
0
20
0
30
0
70
128
71
307
72
335
73
-336
0
VERTEX
8
ChafCaja01
10
0
20
0
30
0
70
128
71
-307
72
336
73
308
0
VERTEX
8
ChafCaja01
10
0
20
0
30
0
70
128
71
308
72
336
73
-337
0
VERTEX
8
ChafCaja01
10
0
20
0
30
0
70
128
71
-308
72
337
73
309
0
VERTEX
8
ChafCaja01
10
0
20
0
30
0
70
128
71
309
72
337
73
-338
0
VERTEX
8
ChafCaja01
10
0
20
0
30
0
70
128
71
-309
72
338
73
310
0
VERTEX
8
ChafCaja01
10
0
20
0
30
0
70
128
71
310
72
338
73
-339
0
VERTEX
8
ChafCaja01
10
0
20
0
30
0
70
128
71
-310
72
339
73
311
0
VERTEX
8
ChafCaja01
10
0
20
0
30
0
70
128
71
311
72
339
73
-340
0
VERTEX
8
ChafCaja01
10
0
20
0
30
0
70
128
71
-311
72
340
73
312
0
VERTEX
8
ChafCaja01
10
0
20
0
30
0
70
128
71
312
72
340
73
-313
0
VERTEX
8
ChafCaja01
10
0
20
0
30
0
70
128
71
-312
72
313
73
285
0
VERTEX
8
ChafCaja01
10
0
20
0
30
0
70
128
71
-313
72
344
73
314
0
VERTEX
8
ChafCaja01
10
0
20
0
30
0
70
128
71
-314
72
344
73
315
0
VERTEX
8
ChafCaja01
10
0
20
0
30
0
70
128
71
-315
72
344
73
316
0
VERTEX
8
ChafCaja01
10
0
20
0
30
0
70
128
71
-316
72
344
73
317
0
VERTEX
8
ChafCaja01
10
0
20
0
30
0
70
128
71
-317
72
344
73
318
0
VERTEX
8
ChafCaja01
10
0
20
0
30
0
70
128
71
-318
72
344
73
319
0
VERTEX
8
ChafCaja01
10
0
20
0
30
0
70
128
71
319
72
344
73
-342
0
VERTEX
8
ChafCaja01
10
0
20
0
30
0
70
128
71
-319
72
342
73
320
0
VERTEX
8
ChafCaja01
10
0
20
0
30
0
70
128
71
-320
72
342
73
321
0
VERTEX
8
ChafCaja01
10
0
20
0
30
0
70
128
71
-321
72
342
73
322
0
VERTEX
8
ChafCaja01
10
0
20
0
30
0
70
128
71
-322
72
342
73
323
0
VERTEX
8
ChafCaja01
10
0
20
0
30
0
70
128
71
-323
72
342
73
324
0
VERTEX
8
ChafCaja01
10
0
20
0
30
0
70
128
71
-324
72
342
73
325
0
VERTEX
8
ChafCaja01
10
0
20
0
30
0
70
128
71
-325
72
342
73
326
0
VERTEX
8
ChafCaja01
10
0
20
0
30
0
70
128
71
326
72
342
73
-341
0
VERTEX
8
ChafCaja01
10
0
20
0
30
0
70
128
71
-326
72
341
73
327
0
VERTEX
8
ChafCaja01
10
0
20
0
30
0
70
128
71
-327
72
341
73
328
0
VERTEX
8
ChafCaja01
10
0
20
0
30
0
70
128
71
-328
72
341
73
329
0
VERTEX
8
ChafCaja01
10
0
20
0
30
0
70
128
71
-329
72
341
73
330
0
VERTEX
8
ChafCaja01
10
0
20
0
30
0
70
128
71
-330
72
341
73
331
0
VERTEX
8
ChafCaja01
10
0
20
0
30
0
70
128
71
-331
72
341
73
332
0
VERTEX
8
ChafCaja01
10
0
20
0
30
0
70
128
71
-332
72
341
73
333
0
VERTEX
8
ChafCaja01
10
0
20
0
30
0
70
128
71
333
72
341
73
-343
0
VERTEX
8
ChafCaja01
10
0
20
0
30
0
70
128
71
-333
72
343
73
334
0
VERTEX
8
ChafCaja01
10
0
20
0
30
0
70
128
71
-334
72
343
73
335
0
VERTEX
8
ChafCaja01
10
0
20
0
30
0
70
128
71
-335
72
343
73
336
0
VERTEX
8
ChafCaja01
10
0
20
0
30
0
70
128
71
-336
72
343
73
337
0
VERTEX
8
ChafCaja01
10
0
20
0
30
0
70
128
71
-337
72
343
73
338
0
VERTEX
8
ChafCaja01
10
0
20
0
30
0
70
128
71
-338
72
343
73
339
0
VERTEX
8
ChafCaja01
10
0
20
0
30
0
70
128
71
-339
72
343
73
340
0
VERTEX
8
ChafCaja01
10
0
20
0
30
0
70
128
71
340
72
343
73
-344
0
VERTEX
8
ChafCaja01
10
0
20
0
30
0
70
128
71
-340
72
344
73
313
0
VERTEX
8
ChafCaja01
10
0
20
0
30
0
70
128
71
343
72
341
73
-342
0
VERTEX
8
ChafCaja01
10
0
20
0
30
0
70
128
71
-343
72
342
73
344
0
SEQEND
8
ChafCaja01
0
ENDSEC
0
EOF
