0
SECTION
2
HEADER
9
$ACADVER
1
AC1008
9
$UCSORG
10
0.0
20
0.0
30
0.0
9
$UCSXDIR
10
1.0
20
0.0
30
0.0
9
$TILEMODE
70
1
9
$UCSYDIR
10
0.0
20
1.0
30
0.0
9
$EXTMIN
10
-0.714000
20
-0.714000
30
0.000000
9
$EXTMAX
10
0.714000
20
0.714000
30
2.500000
0
ENDSEC
0
SECTION
2
TABLES
0
TABLE
2
LTYPE
70
1
0
LTYPE
2
CONTINUOUS
70
64
3
Solid line
72
65
73
0
40
0.0
0
ENDTAB
0
TABLE
2
LAYER
70
1
0
LAYER
2
ChafCaja01
70
0
62
112
6
CONTINUOUS
0
ENDTAB
0
TABLE
2
STYLE
70
1
0
STYLE
2
STANDARD
70
0
40
0.0
41
1.0
50
0.0
71
0
42
0.2
3
txt
4

0
ENDTAB
0
TABLE
2
UCS
70
0
0
ENDTAB
0
ENDSEC
0
SECTION
2
ENTITIES
0
POLYLINE
8
ChafCaja01
66
1
70
64
71
104
72
204
62
112
0
VERTEX
8
ChafCaja01
10
-0.270000
20
0.270000
30
2.500000
70
192
0
VERTEX
8
ChafCaja01
10
0.270000
20
0.270000
30
2.500000
70
192
0
VERTEX
8
ChafCaja01
10
-0.270000
20
-0.270000
30
2.500000
70
192
0
VERTEX
8
ChafCaja01
10
0.270000
20
-0.270000
30
2.500000
70
192
0
VERTEX
8
ChafCaja01
10
-0.272894
20
0.363859
30
2.459808
70
192
0
VERTEX
8
ChafCaja01
10
-0.318376
20
0.351672
30
2.459808
70
192
0
VERTEX
8
ChafCaja01
10
-0.351672
20
0.318376
30
2.459808
70
192
0
VERTEX
8
ChafCaja01
10
-0.363859
20
0.272894
30
2.459808
70
192
0
VERTEX
8
ChafCaja01
10
-0.363859
20
-0.272894
30
2.459808
70
192
0
VERTEX
8
ChafCaja01
10
-0.351672
20
-0.318376
30
2.459808
70
192
0
VERTEX
8
ChafCaja01
10
-0.318376
20
-0.351672
30
2.459808
70
192
0
VERTEX
8
ChafCaja01
10
-0.272894
20
-0.363859
30
2.459808
70
192
0
VERTEX
8
ChafCaja01
10
0.272894
20
-0.363859
30
2.459808
70
192
0
VERTEX
8
ChafCaja01
10
0.318376
20
-0.351672
30
2.459808
70
192
0
VERTEX
8
ChafCaja01
10
0.351672
20
-0.318376
30
2.459808
70
192
0
VERTEX
8
ChafCaja01
10
0.363859
20
-0.272894
30
2.459808
70
192
0
VERTEX
8
ChafCaja01
10
0.363859
20
0.272894
30
2.459808
70
192
0
VERTEX
8
ChafCaja01
10
0.351672
20
0.318376
30
2.459808
70
192
0
VERTEX
8
ChafCaja01
10
0.318376
20
0.351672
30
2.459808
70
192
0
VERTEX
8
ChafCaja01
10
0.272894
20
0.363859
30
2.459808
70
192
0
VERTEX
8
ChafCaja01
10
-0.280800
20
0.442920
30
2.350000
70
192
0
VERTEX
8
ChafCaja01
10
-0.361860
20
0.421200
30
2.350000
70
192
0
VERTEX
8
ChafCaja01
10
-0.421200
20
0.361860
30
2.350000
70
192
0
VERTEX
8
ChafCaja01
10
-0.442920
20
0.280800
30
2.350000
70
192
0
VERTEX
8
ChafCaja01
10
-0.442920
20
-0.280800
30
2.350000
70
192
0
VERTEX
8
ChafCaja01
10
-0.421200
20
-0.361860
30
2.350000
70
192
0
VERTEX
8
ChafCaja01
10
-0.361860
20
-0.421200
30
2.350000
70
192
0
VERTEX
8
ChafCaja01
10
-0.280800
20
-0.442920
30
2.350000
70
192
0
VERTEX
8
ChafCaja01
10
0.280800
20
-0.442920
30
2.350000
70
192
0
VERTEX
8
ChafCaja01
10
0.361860
20
-0.421200
30
2.350000
70
192
0
VERTEX
8
ChafCaja01
10
0.421200
20
-0.361860
30
2.350000
70
192
0
VERTEX
8
ChafCaja01
10
0.442920
20
-0.280800
30
2.350000
70
192
0
VERTEX
8
ChafCaja01
10
0.442920
20
0.280800
30
2.350000
70
192
0
VERTEX
8
ChafCaja01
10
0.421200
20
0.361860
30
2.350000
70
192
0
VERTEX
8
ChafCaja01
10
0.361860
20
0.421200
30
2.350000
70
192
0
VERTEX
8
ChafCaja01
10
0.280800
20
0.442920
30
2.350000
70
192
0
VERTEX
8
ChafCaja01
10
-0.291600
20
0.486000
30
2.200000
70
192
0
VERTEX
8
ChafCaja01
10
-0.388800
20
0.459955
30
2.200000
70
192
0
VERTEX
8
ChafCaja01
10
-0.459955
20
0.388800
30
2.200000
70
192
0
VERTEX
8
ChafCaja01
10
-0.486000
20
0.291600
30
2.200000
70
192
0
VERTEX
8
ChafCaja01
10
-0.486000
20
-0.291600
30
2.200000
70
192
0
VERTEX
8
ChafCaja01
10
-0.459955
20
-0.388800
30
2.200000
70
192
0
VERTEX
8
ChafCaja01
10
-0.388800
20
-0.459955
30
2.200000
70
192
0
VERTEX
8
ChafCaja01
10
-0.291600
20
-0.486000
30
2.200000
70
192
0
VERTEX
8
ChafCaja01
10
0.291600
20
-0.486000
30
2.200000
70
192
0
VERTEX
8
ChafCaja01
10
0.388800
20
-0.459955
30
2.200000
70
192
0
VERTEX
8
ChafCaja01
10
0.459955
20
-0.388800
30
2.200000
70
192
0
VERTEX
8
ChafCaja01
10
0.486000
20
-0.291600
30
2.200000
70
192
0
VERTEX
8
ChafCaja01
10
0.486000
20
0.291600
30
2.200000
70
192
0
VERTEX
8
ChafCaja01
10
0.459955
20
0.388800
30
2.200000
70
192
0
VERTEX
8
ChafCaja01
10
0.388800
20
0.459955
30
2.200000
70
192
0
VERTEX
8
ChafCaja01
10
0.291600
20
0.486000
30
2.200000
70
192
0
VERTEX
8
ChafCaja01
10
-0.428400
20
0.714000
30
0.300000
70
192
0
VERTEX
8
ChafCaja01
10
-0.571200
20
0.675737
30
0.300000
70
192
0
VERTEX
8
ChafCaja01
10
-0.675737
20
0.571200
30
0.300000
70
192
0
VERTEX
8
ChafCaja01
10
-0.714000
20
0.428400
30
0.300000
70
192
0
VERTEX
8
ChafCaja01
10
-0.714000
20
-0.428400
30
0.300000
70
192
0
VERTEX
8
ChafCaja01
10
-0.675737
20
-0.571200
30
0.300000
70
192
0
VERTEX
8
ChafCaja01
10
-0.571200
20
-0.675737
30
0.300000
70
192
0
VERTEX
8
ChafCaja01
10
-0.428400
20
-0.714000
30
0.300000
70
192
0
VERTEX
8
ChafCaja01
10
0.428400
20
-0.714000
30
0.300000
70
192
0
VERTEX
8
ChafCaja01
10
0.571200
20
-0.675737
30
0.300000
70
192
0
VERTEX
8
ChafCaja01
10
0.675737
20
-0.571200
30
0.300000
70
192
0
VERTEX
8
ChafCaja01
10
0.714000
20
-0.428400
30
0.300000
70
192
0
VERTEX
8
ChafCaja01
10
0.714000
20
0.428400
30
0.300000
70
192
0
VERTEX
8
ChafCaja01
10
0.675737
20
0.571200
30
0.300000
70
192
0
VERTEX
8
ChafCaja01
10
0.571200
20
0.675737
30
0.300000
70
192
0
VERTEX
8
ChafCaja01
10
0.428400
20
0.714000
30
0.300000
70
192
0
VERTEX
8
ChafCaja01
10
-0.439200
20
0.692772
30
0.150000
70
192
0
VERTEX
8
ChafCaja01
10
-0.565986
20
0.658800
30
0.150000
70
192
0
VERTEX
8
ChafCaja01
10
-0.658800
20
0.565986
30
0.150000
70
192
0
VERTEX
8
ChafCaja01
10
-0.692772
20
0.439200
30
0.150000
70
192
0
VERTEX
8
ChafCaja01
10
-0.692772
20
-0.439200
30
0.150000
70
192
0
VERTEX
8
ChafCaja01
10
-0.658800
20
-0.565986
30
0.150000
70
192
0
VERTEX
8
ChafCaja01
10
-0.565986
20
-0.658800
30
0.150000
70
192
0
VERTEX
8
ChafCaja01
10
-0.439200
20
-0.692772
30
0.150000
70
192
0
VERTEX
8
ChafCaja01
10
0.439200
20
-0.692772
30
0.150000
70
192
0
VERTEX
8
ChafCaja01
10
0.565986
20
-0.658800
30
0.150000
70
192
0
VERTEX
8
ChafCaja01
10
0.658800
20
-0.565986
30
0.150000
70
192
0
VERTEX
8
ChafCaja01
10
0.692772
20
-0.439200
30
0.150000
70
192
0
VERTEX
8
ChafCaja01
10
0.692772
20
0.439200
30
0.150000
70
192
0
VERTEX
8
ChafCaja01
10
0.658800
20
0.565986
30
0.150000
70
192
0
VERTEX
8
ChafCaja01
10
0.565986
20
0.658800
30
0.150000
70
192
0
VERTEX
8
ChafCaja01
10
0.439200
20
0.692772
30
0.150000
70
192
0
VERTEX
8
ChafCaja01
10
-0.447106
20
0.596142
30
0.040192
70
192
0
VERTEX
8
ChafCaja01
10
-0.521624
20
0.576175
30
0.040192
70
192
0
VERTEX
8
ChafCaja01
10
-0.576175
20
0.521624
30
0.040192
70
192
0
VERTEX
8
ChafCaja01
10
-0.596142
20
0.447106
30
0.040192
70
192
0
VERTEX
8
ChafCaja01
10
-0.596142
20
-0.447106
30
0.040192
70
192
0
VERTEX
8
ChafCaja01
10
-0.576175
20
-0.521624
30
0.040192
70
192
0
VERTEX
8
ChafCaja01
10
-0.521624
20
-0.576175
30
0.040192
70
192
0
VERTEX
8
ChafCaja01
10
-0.447106
20
-0.596142
30
0.040192
70
192
0
VERTEX
8
ChafCaja01
10
0.447106
20
-0.596142
30
0.040192
70
192
0
VERTEX
8
ChafCaja01
10
0.521624
20
-0.576175
30
0.040192
70
192
0
VERTEX
8
ChafCaja01
10
0.576175
20
-0.521624
30
0.040192
70
192
0
VERTEX
8
ChafCaja01
10
0.596142
20
-0.447106
30
0.040192
70
192
0
VERTEX
8
ChafCaja01
10
0.596142
20
0.447106
30
0.040192
70
192
0
VERTEX
8
ChafCaja01
10
0.576175
20
0.521624
30
0.040192
70
192
0
VERTEX
8
ChafCaja01
10
0.521624
20
0.576175
30
0.040192
70
192
0
VERTEX
8
ChafCaja01
10
0.447106
20
0.596142
30
0.040192
70
192
0
VERTEX
8
ChafCaja01
10
0.450000
20
-0.450000
30
0.000000
70
192
0
VERTEX
8
ChafCaja01
10
-0.450000
20
-0.450000
30
0.000000
70
192
0
VERTEX
8
ChafCaja01
10
0.450000
20
0.450000
30
0.000000
70
192
0
VERTEX
8
ChafCaja01
10
-0.450000
20
0.450000
30
0.000000
70
192
0
VERTEX
8
ChafCaja01
10
0
20
0
30
0
70
128
71
1
72
3
73
-4
0
VERTEX
8
ChafCaja01
10
0
20
0
30
0
70
128
71
-1
72
4
73
2
0
VERTEX
8
ChafCaja01
10
0
20
0
30
0
70
128
71
1
72
5
73
-6
0
VERTEX
8
ChafCaja01
10
0
20
0
30
0
70
128
71
1
72
6
73
-7
0
VERTEX
8
ChafCaja01
10
0
20
0
30
0
70
128
71
1
72
7
73
-8
0
VERTEX
8
ChafCaja01
10
0
20
0
30
0
70
128
71
1
72
8
73
-9
0
VERTEX
8
ChafCaja01
10
0
20
0
30
0
70
128
71
-1
72
9
73
3
0
VERTEX
8
ChafCaja01
10
0
20
0
30
0
70
128
71
3
72
9
73
-10
0
VERTEX
8
ChafCaja01
10
0
20
0
30
0
70
128
71
3
72
10
73
-11
0
VERTEX
8
ChafCaja01
10
0
20
0
30
0
70
128
71
3
72
11
73
-12
0
VERTEX
8
ChafCaja01
10
0
20
0
30
0
70
128
71
3
72
12
73
-13
0
VERTEX
8
ChafCaja01
10
0
20
0
30
0
70
128
71
-3
72
13
73
4
0
VERTEX
8
ChafCaja01
10
0
20
0
30
0
70
128
71
4
72
13
73
-14
0
VERTEX
8
ChafCaja01
10
0
20
0
30
0
70
128
71
4
72
14
73
-15
0
VERTEX
8
ChafCaja01
10
0
20
0
30
0
70
128
71
4
72
15
73
-16
0
VERTEX
8
ChafCaja01
10
0
20
0
30
0
70
128
71
4
72
16
73
-17
0
VERTEX
8
ChafCaja01
10
0
20
0
30
0
70
128
71
-4
72
17
73
2
0
VERTEX
8
ChafCaja01
10
0
20
0
30
0
70
128
71
2
72
17
73
-18
0
VERTEX
8
ChafCaja01
10
0
20
0
30
0
70
128
71
2
72
18
73
-19
0
VERTEX
8
ChafCaja01
10
0
20
0
30
0
70
128
71
2
72
19
73
-20
0
VERTEX
8
ChafCaja01
10
0
20
0
30
0
70
128
71
2
72
20
73
-5
0
VERTEX
8
ChafCaja01
10
0
20
0
30
0
70
128
71
-2
72
5
73
1
0
VERTEX
8
ChafCaja01
10
0
20
0
30
0
70
128
71
5
72
21
73
-22
0
VERTEX
8
ChafCaja01
10
0
20
0
30
0
70
128
71
-5
72
22
73
6
0
VERTEX
8
ChafCaja01
10
0
20
0
30
0
70
128
71
6
72
22
73
-23
0
VERTEX
8
ChafCaja01
10
0
20
0
30
0
70
128
71
-6
72
23
73
7
0
VERTEX
8
ChafCaja01
10
0
20
0
30
0
70
128
71
7
72
23
73
-24
0
VERTEX
8
ChafCaja01
10
0
20
0
30
0
70
128
71
-7
72
24
73
8
0
VERTEX
8
ChafCaja01
10
0
20
0
30
0
70
128
71
8
72
24
73
-25
0
VERTEX
8
ChafCaja01
10
0
20
0
30
0
70
128
71
-8
72
25
73
9
0
VERTEX
8
ChafCaja01
10
0
20
0
30
0
70
128
71
9
72
25
73
-26
0
VERTEX
8
ChafCaja01
10
0
20
0
30
0
70
128
71
-9
72
26
73
10
0
VERTEX
8
ChafCaja01
10
0
20
0
30
0
70
128
71
10
72
26
73
-27
0
VERTEX
8
ChafCaja01
10
0
20
0
30
0
70
128
71
-10
72
27
73
11
0
VERTEX
8
ChafCaja01
10
0
20
0
30
0
70
128
71
11
72
27
73
-28
0
VERTEX
8
ChafCaja01
10
0
20
0
30
0
70
128
71
-11
72
28
73
12
0
VERTEX
8
ChafCaja01
10
0
20
0
30
0
70
128
71
12
72
28
73
-29
0
VERTEX
8
ChafCaja01
10
0
20
0
30
0
70
128
71
-12
72
29
73
13
0
VERTEX
8
ChafCaja01
10
0
20
0
30
0
70
128
71
13
72
29
73
-30
0
VERTEX
8
ChafCaja01
10
0
20
0
30
0
70
128
71
-13
72
30
73
14
0
VERTEX
8
ChafCaja01
10
0
20
0
30
0
70
128
71
14
72
30
73
-31
0
VERTEX
8
ChafCaja01
10
0
20
0
30
0
70
128
71
-14
72
31
73
15
0
VERTEX
8
ChafCaja01
10
0
20
0
30
0
70
128
71
15
72
31
73
-32
0
VERTEX
8
ChafCaja01
10
0
20
0
30
0
70
128
71
-15
72
32
73
16
0
VERTEX
8
ChafCaja01
10
0
20
0
30
0
70
128
71
16
72
32
73
-33
0
VERTEX
8
ChafCaja01
10
0
20
0
30
0
70
128
71
-16
72
33
73
17
0
VERTEX
8
ChafCaja01
10
0
20
0
30
0
70
128
71
17
72
33
73
-34
0
VERTEX
8
ChafCaja01
10
0
20
0
30
0
70
128
71
-17
72
34
73
18
0
VERTEX
8
ChafCaja01
10
0
20
0
30
0
70
128
71
18
72
34
73
-35
0
VERTEX
8
ChafCaja01
10
0
20
0
30
0
70
128
71
-18
72
35
73
19
0
VERTEX
8
ChafCaja01
10
0
20
0
30
0
70
128
71
19
72
35
73
-36
0
VERTEX
8
ChafCaja01
10
0
20
0
30
0
70
128
71
-19
72
36
73
20
0
VERTEX
8
ChafCaja01
10
0
20
0
30
0
70
128
71
20
72
36
73
-21
0
VERTEX
8
ChafCaja01
10
0
20
0
30
0
70
128
71
-20
72
21
73
5
0
VERTEX
8
ChafCaja01
10
0
20
0
30
0
70
128
71
21
72
37
73
-38
0
VERTEX
8
ChafCaja01
10
0
20
0
30
0
70
128
71
-21
72
38
73
22
0
VERTEX
8
ChafCaja01
10
0
20
0
30
0
70
128
71
22
72
38
73
-39
0
VERTEX
8
ChafCaja01
10
0
20
0
30
0
70
128
71
-22
72
39
73
23
0
VERTEX
8
ChafCaja01
10
0
20
0
30
0
70
128
71
23
72
39
73
-40
0
VERTEX
8
ChafCaja01
10
0
20
0
30
0
70
128
71
-23
72
40
73
24
0
VERTEX
8
ChafCaja01
10
0
20
0
30
0
70
128
71
24
72
40
73
-41
0
VERTEX
8
ChafCaja01
10
0
20
0
30
0
70
128
71
-24
72
41
73
25
0
VERTEX
8
ChafCaja01
10
0
20
0
30
0
70
128
71
25
72
41
73
-42
0
VERTEX
8
ChafCaja01
10
0
20
0
30
0
70
128
71
-25
72
42
73
26
0
VERTEX
8
ChafCaja01
10
0
20
0
30
0
70
128
71
26
72
42
73
-43
0
VERTEX
8
ChafCaja01
10
0
20
0
30
0
70
128
71
-26
72
43
73
27
0
VERTEX
8
ChafCaja01
10
0
20
0
30
0
70
128
71
27
72
43
73
-44
0
VERTEX
8
ChafCaja01
10
0
20
0
30
0
70
128
71
-27
72
44
73
28
0
VERTEX
8
ChafCaja01
10
0
20
0
30
0
70
128
71
28
72
44
73
-45
0
VERTEX
8
ChafCaja01
10
0
20
0
30
0
70
128
71
-28
72
45
73
29
0
VERTEX
8
ChafCaja01
10
0
20
0
30
0
70
128
71
29
72
45
73
-46
0
VERTEX
8
ChafCaja01
10
0
20
0
30
0
70
128
71
-29
72
46
73
30
0
VERTEX
8
ChafCaja01
10
0
20
0
30
0
70
128
71
30
72
46
73
-47
0
VERTEX
8
ChafCaja01
10
0
20
0
30
0
70
128
71
-30
72
47
73
31
0
VERTEX
8
ChafCaja01
10
0
20
0
30
0
70
128
71
31
72
47
73
-48
0
VERTEX
8
ChafCaja01
10
0
20
0
30
0
70
128
71
-31
72
48
73
32
0
VERTEX
8
ChafCaja01
10
0
20
0
30
0
70
128
71
32
72
48
73
-49
0
VERTEX
8
ChafCaja01
10
0
20
0
30
0
70
128
71
-32
72
49
73
33
0
VERTEX
8
ChafCaja01
10
0
20
0
30
0
70
128
71
33
72
49
73
-50
0
VERTEX
8
ChafCaja01
10
0
20
0
30
0
70
128
71
-33
72
50
73
34
0
VERTEX
8
ChafCaja01
10
0
20
0
30
0
70
128
71
34
72
50
73
-51
0
VERTEX
8
ChafCaja01
10
0
20
0
30
0
70
128
71
-34
72
51
73
35
0
VERTEX
8
ChafCaja01
10
0
20
0
30
0
70
128
71
35
72
51
73
-52
0
VERTEX
8
ChafCaja01
10
0
20
0
30
0
70
128
71
-35
72
52
73
36
0
VERTEX
8
ChafCaja01
10
0
20
0
30
0
70
128
71
36
72
52
73
-37
0
VERTEX
8
ChafCaja01
10
0
20
0
30
0
70
128
71
-36
72
37
73
21
0
VERTEX
8
ChafCaja01
10
0
20
0
30
0
70
128
71
37
72
53
73
-54
0
VERTEX
8
ChafCaja01
10
0
20
0
30
0
70
128
71
-37
72
54
73
38
0
VERTEX
8
ChafCaja01
10
0
20
0
30
0
70
128
71
38
72
54
73
-55
0
VERTEX
8
ChafCaja01
10
0
20
0
30
0
70
128
71
-38
72
55
73
39
0
VERTEX
8
ChafCaja01
10
0
20
0
30
0
70
128
71
39
72
55
73
-56
0
VERTEX
8
ChafCaja01
10
0
20
0
30
0
70
128
71
-39
72
56
73
40
0
VERTEX
8
ChafCaja01
10
0
20
0
30
0
70
128
71
40
72
56
73
-57
0
VERTEX
8
ChafCaja01
10
0
20
0
30
0
70
128
71
-40
72
57
73
41
0
VERTEX
8
ChafCaja01
10
0
20
0
30
0
70
128
71
41
72
57
73
-58
0
VERTEX
8
ChafCaja01
10
0
20
0
30
0
70
128
71
-41
72
58
73
42
0
VERTEX
8
ChafCaja01
10
0
20
0
30
0
70
128
71
42
72
58
73
-59
0
VERTEX
8
ChafCaja01
10
0
20
0
30
0
70
128
71
-42
72
59
73
43
0
VERTEX
8
ChafCaja01
10
0
20
0
30
0
70
128
71
43
72
59
73
-60
0
VERTEX
8
ChafCaja01
10
0
20
0
30
0
70
128
71
-43
72
60
73
44
0
VERTEX
8
ChafCaja01
10
0
20
0
30
0
70
128
71
44
72
60
73
-61
0
VERTEX
8
ChafCaja01
10
0
20
0
30
0
70
128
71
-44
72
61
73
45
0
VERTEX
8
ChafCaja01
10
0
20
0
30
0
70
128
71
45
72
61
73
-62
0
VERTEX
8
ChafCaja01
10
0
20
0
30
0
70
128
71
-45
72
62
73
46
0
VERTEX
8
ChafCaja01
10
0
20
0
30
0
70
128
71
46
72
62
73
-63
0
VERTEX
8
ChafCaja01
10
0
20
0
30
0
70
128
71
-46
72
63
73
47
0
VERTEX
8
ChafCaja01
10
0
20
0
30
0
70
128
71
47
72
63
73
-64
0
VERTEX
8
ChafCaja01
10
0
20
0
30
0
70
128
71
-47
72
64
73
48
0
VERTEX
8
ChafCaja01
10
0
20
0
30
0
70
128
71
48
72
64
73
-65
0
VERTEX
8
ChafCaja01
10
0
20
0
30
0
70
128
71
-48
72
65
73
49
0
VERTEX
8
ChafCaja01
10
0
20
0
30
0
70
128
71
49
72
65
73
-66
0
VERTEX
8
ChafCaja01
10
0
20
0
30
0
70
128
71
-49
72
66
73
50
0
VERTEX
8
ChafCaja01
10
0
20
0
30
0
70
128
71
50
72
66
73
-67
0
VERTEX
8
ChafCaja01
10
0
20
0
30
0
70
128
71
-50
72
67
73
51
0
VERTEX
8
ChafCaja01
10
0
20
0
30
0
70
128
71
51
72
67
73
-68
0
VERTEX
8
ChafCaja01
10
0
20
0
30
0
70
128
71
-51
72
68
73
52
0
VERTEX
8
ChafCaja01
10
0
20
0
30
0
70
128
71
52
72
68
73
-53
0
VERTEX
8
ChafCaja01
10
0
20
0
30
0
70
128
71
-52
72
53
73
37
0
VERTEX
8
ChafCaja01
10
0
20
0
30
0
70
128
71
53
72
69
73
-70
0
VERTEX
8
ChafCaja01
10
0
20
0
30
0
70
128
71
-53
72
70
73
54
0
VERTEX
8
ChafCaja01
10
0
20
0
30
0
70
128
71
54
72
70
73
-71
0
VERTEX
8
ChafCaja01
10
0
20
0
30
0
70
128
71
-54
72
71
73
55
0
VERTEX
8
ChafCaja01
10
0
20
0
30
0
70
128
71
55
72
71
73
-72
0
VERTEX
8
ChafCaja01
10
0
20
0
30
0
70
128
71
-55
72
72
73
56
0
VERTEX
8
ChafCaja01
10
0
20
0
30
0
70
128
71
56
72
72
73
-73
0
VERTEX
8
ChafCaja01
10
0
20
0
30
0
70
128
71
-56
72
73
73
57
0
VERTEX
8
ChafCaja01
10
0
20
0
30
0
70
128
71
57
72
73
73
-74
0
VERTEX
8
ChafCaja01
10
0
20
0
30
0
70
128
71
-57
72
74
73
58
0
VERTEX
8
ChafCaja01
10
0
20
0
30
0
70
128
71
58
72
74
73
-75
0
VERTEX
8
ChafCaja01
10
0
20
0
30
0
70
128
71
-58
72
75
73
59
0
VERTEX
8
ChafCaja01
10
0
20
0
30
0
70
128
71
59
72
75
73
-76
0
VERTEX
8
ChafCaja01
10
0
20
0
30
0
70
128
71
-59
72
76
73
60
0
VERTEX
8
ChafCaja01
10
0
20
0
30
0
70
128
71
60
72
76
73
-77
0
VERTEX
8
ChafCaja01
10
0
20
0
30
0
70
128
71
-60
72
77
73
61
0
VERTEX
8
ChafCaja01
10
0
20
0
30
0
70
128
71
61
72
77
73
-78
0
VERTEX
8
ChafCaja01
10
0
20
0
30
0
70
128
71
-61
72
78
73
62
0
VERTEX
8
ChafCaja01
10
0
20
0
30
0
70
128
71
62
72
78
73
-79
0
VERTEX
8
ChafCaja01
10
0
20
0
30
0
70
128
71
-62
72
79
73
63
0
VERTEX
8
ChafCaja01
10
0
20
0
30
0
70
128
71
63
72
79
73
-80
0
VERTEX
8
ChafCaja01
10
0
20
0
30
0
70
128
71
-63
72
80
73
64
0
VERTEX
8
ChafCaja01
10
0
20
0
30
0
70
128
71
64
72
80
73
-81
0
VERTEX
8
ChafCaja01
10
0
20
0
30
0
70
128
71
-64
72
81
73
65
0
VERTEX
8
ChafCaja01
10
0
20
0
30
0
70
128
71
65
72
81
73
-82
0
VERTEX
8
ChafCaja01
10
0
20
0
30
0
70
128
71
-65
72
82
73
66
0
VERTEX
8
ChafCaja01
10
0
20
0
30
0
70
128
71
66
72
82
73
-83
0
VERTEX
8
ChafCaja01
10
0
20
0
30
0
70
128
71
-66
72
83
73
67
0
VERTEX
8
ChafCaja01
10
0
20
0
30
0
70
128
71
67
72
83
73
-84
0
VERTEX
8
ChafCaja01
10
0
20
0
30
0
70
128
71
-67
72
84
73
68
0
VERTEX
8
ChafCaja01
10
0
20
0
30
0
70
128
71
68
72
84
73
-69
0
VERTEX
8
ChafCaja01
10
0
20
0
30
0
70
128
71
-68
72
69
73
53
0
VERTEX
8
ChafCaja01
10
0
20
0
30
0
70
128
71
69
72
85
73
-86
0
VERTEX
8
ChafCaja01
10
0
20
0
30
0
70
128
71
-69
72
86
73
70
0
VERTEX
8
ChafCaja01
10
0
20
0
30
0
70
128
71
70
72
86
73
-87
0
VERTEX
8
ChafCaja01
10
0
20
0
30
0
70
128
71
-70
72
87
73
71
0
VERTEX
8
ChafCaja01
10
0
20
0
30
0
70
128
71
71
72
87
73
-88
0
VERTEX
8
ChafCaja01
10
0
20
0
30
0
70
128
71
-71
72
88
73
72
0
VERTEX
8
ChafCaja01
10
0
20
0
30
0
70
128
71
72
72
88
73
-89
0
VERTEX
8
ChafCaja01
10
0
20
0
30
0
70
128
71
-72
72
89
73
73
0
VERTEX
8
ChafCaja01
10
0
20
0
30
0
70
128
71
73
72
89
73
-90
0
VERTEX
8
ChafCaja01
10
0
20
0
30
0
70
128
71
-73
72
90
73
74
0
VERTEX
8
ChafCaja01
10
0
20
0
30
0
70
128
71
74
72
90
73
-91
0
VERTEX
8
ChafCaja01
10
0
20
0
30
0
70
128
71
-74
72
91
73
75
0
VERTEX
8
ChafCaja01
10
0
20
0
30
0
70
128
71
75
72
91
73
-92
0
VERTEX
8
ChafCaja01
10
0
20
0
30
0
70
128
71
-75
72
92
73
76
0
VERTEX
8
ChafCaja01
10
0
20
0
30
0
70
128
71
76
72
92
73
-93
0
VERTEX
8
ChafCaja01
10
0
20
0
30
0
70
128
71
-76
72
93
73
77
0
VERTEX
8
ChafCaja01
10
0
20
0
30
0
70
128
71
77
72
93
73
-94
0
VERTEX
8
ChafCaja01
10
0
20
0
30
0
70
128
71
-77
72
94
73
78
0
VERTEX
8
ChafCaja01
10
0
20
0
30
0
70
128
71
78
72
94
73
-95
0
VERTEX
8
ChafCaja01
10
0
20
0
30
0
70
128
71
-78
72
95
73
79
0
VERTEX
8
ChafCaja01
10
0
20
0
30
0
70
128
71
79
72
95
73
-96
0
VERTEX
8
ChafCaja01
10
0
20
0
30
0
70
128
71
-79
72
96
73
80
0
VERTEX
8
ChafCaja01
10
0
20
0
30
0
70
128
71
80
72
96
73
-97
0
VERTEX
8
ChafCaja01
10
0
20
0
30
0
70
128
71
-80
72
97
73
81
0
VERTEX
8
ChafCaja01
10
0
20
0
30
0
70
128
71
81
72
97
73
-98
0
VERTEX
8
ChafCaja01
10
0
20
0
30
0
70
128
71
-81
72
98
73
82
0
VERTEX
8
ChafCaja01
10
0
20
0
30
0
70
128
71
82
72
98
73
-99
0
VERTEX
8
ChafCaja01
10
0
20
0
30
0
70
128
71
-82
72
99
73
83
0
VERTEX
8
ChafCaja01
10
0
20
0
30
0
70
128
71
83
72
99
73
-100
0
VERTEX
8
ChafCaja01
10
0
20
0
30
0
70
128
71
-83
72
100
73
84
0
VERTEX
8
ChafCaja01
10
0
20
0
30
0
70
128
71
84
72
100
73
-85
0
VERTEX
8
ChafCaja01
10
0
20
0
30
0
70
128
71
-84
72
85
73
69
0
VERTEX
8
ChafCaja01
10
0
20
0
30
0
70
128
71
-85
72
104
73
86
0
VERTEX
8
ChafCaja01
10
0
20
0
30
0
70
128
71
-86
72
104
73
87
0
VERTEX
8
ChafCaja01
10
0
20
0
30
0
70
128
71
-87
72
104
73
88
0
VERTEX
8
ChafCaja01
10
0
20
0
30
0
70
128
71
88
72
104
73
-102
0
VERTEX
8
ChafCaja01
10
0
20
0
30
0
70
128
71
-88
72
102
73
89
0
VERTEX
8
ChafCaja01
10
0
20
0
30
0
70
128
71
-89
72
102
73
90
0
VERTEX
8
ChafCaja01
10
0
20
0
30
0
70
128
71
-90
72
102
73
91
0
VERTEX
8
ChafCaja01
10
0
20
0
30
0
70
128
71
-91
72
102
73
92
0
VERTEX
8
ChafCaja01
10
0
20
0
30
0
70
128
71
92
72
102
73
-101
0
VERTEX
8
ChafCaja01
10
0
20
0
30
0
70
128
71
-92
72
101
73
93
0
VERTEX
8
ChafCaja01
10
0
20
0
30
0
70
128
71
-93
72
101
73
94
0
VERTEX
8
ChafCaja01
10
0
20
0
30
0
70
128
71
-94
72
101
73
95
0
VERTEX
8
ChafCaja01
10
0
20
0
30
0
70
128
71
-95
72
101
73
96
0
VERTEX
8
ChafCaja01
10
0
20
0
30
0
70
128
71
96
72
101
73
-103
0
VERTEX
8
ChafCaja01
10
0
20
0
30
0
70
128
71
-96
72
103
73
97
0
VERTEX
8
ChafCaja01
10
0
20
0
30
0
70
128
71
-97
72
103
73
98
0
VERTEX
8
ChafCaja01
10
0
20
0
30
0
70
128
71
-98
72
103
73
99
0
VERTEX
8
ChafCaja01
10
0
20
0
30
0
70
128
71
-99
72
103
73
100
0
VERTEX
8
ChafCaja01
10
0
20
0
30
0
70
128
71
100
72
103
73
-104
0
VERTEX
8
ChafCaja01
10
0
20
0
30
0
70
128
71
-100
72
104
73
85
0
VERTEX
8
ChafCaja01
10
0
20
0
30
0
70
128
71
103
72
101
73
-102
0
VERTEX
8
ChafCaja01
10
0
20
0
30
0
70
128
71
-103
72
102
73
104
0
SEQEND
8
ChafCaja01
0
ENDSEC
0
EOF
