0
SECTION
2
HEADER
9
$ACADVER
1
AC1008
9
$UCSORG
10
0.0
20
0.0
30
0.0
9
$UCSXDIR
10
1.0
20
0.0
30
0.0
9
$TILEMODE
70
1
9
$UCSYDIR
10
0.0
20
1.0
30
0.0
9
$EXTMIN
10
-2.332754
20
-0.198582
30
-2.109256
9
$EXTMAX
10
2.312343
20
0.198582
30
1.500200
0
ENDSEC
0
SECTION
2
TABLES
0
TABLE
2
LTYPE
70
1
0
LTYPE
2
CONTINUOUS
70
64
3
Solid line
72
65
73
0
40
0.0
0
ENDTAB
0
TABLE
2
LAYER
70
1
0
LAYER
2
Caja01
70
0
62
231
6
CONTINUOUS
0
ENDTAB
0
TABLE
2
STYLE
70
1
0
STYLE
2
STANDARD
70
0
40
0.0
41
1.0
50
0.0
71
0
42
0.2
3
txt
4

0
ENDTAB
0
TABLE
2
UCS
70
0
0
ENDTAB
0
ENDSEC
0
SECTION
2
ENTITIES
0
POLYLINE
8
Caja01
66
1
70
64
71
131
72
258
62
231
0
VERTEX
8
Caja01
10
-2.179067
20
-0.148937
30
-0.002716
70
192
0
VERTEX
8
Caja01
10
-1.418397
20
-0.166809
30
-0.345736
70
192
0
VERTEX
8
Caja01
10
-0.447380
20
-0.166809
30
0.150133
70
192
0
VERTEX
8
Caja01
10
0.435562
20
-0.166809
30
0.155893
70
192
0
VERTEX
8
Caja01
10
1.403677
20
-0.166809
30
-0.238427
70
192
0
VERTEX
8
Caja01
10
2.170140
20
-0.148937
30
0.005108
70
192
0
VERTEX
8
Caja01
10
-1.907919
20
-0.110323
30
0.763509
70
192
0
VERTEX
8
Caja01
10
-1.209341
20
-0.148937
30
1.049652
70
192
0
VERTEX
8
Caja01
10
-0.204627
20
-0.148937
30
1.308165
70
192
0
VERTEX
8
Caja01
10
0.249764
20
-0.148937
30
1.292302
70
192
0
VERTEX
8
Caja01
10
1.199948
20
-0.148937
30
0.998563
70
192
0
VERTEX
8
Caja01
10
1.945494
20
-0.110323
30
0.710692
70
192
0
VERTEX
8
Caja01
10
-2.179067
20
0.148937
30
-0.002716
70
192
0
VERTEX
8
Caja01
10
-1.419604
20
0.166809
30
-0.346974
70
192
0
VERTEX
8
Caja01
10
-0.448588
20
0.166809
30
0.148895
70
192
0
VERTEX
8
Caja01
10
0.435342
20
0.166809
30
0.155893
70
192
0
VERTEX
8
Caja01
10
1.403457
20
0.166809
30
-0.238427
70
192
0
VERTEX
8
Caja01
10
2.170140
20
0.148937
30
0.005108
70
192
0
VERTEX
8
Caja01
10
-1.907919
20
0.110323
30
0.763509
70
192
0
VERTEX
8
Caja01
10
-1.209656
20
0.148937
30
1.049330
70
192
0
VERTEX
8
Caja01
10
-0.204942
20
0.148937
30
1.307843
70
192
0
VERTEX
8
Caja01
10
0.249707
20
0.148937
30
1.292302
70
192
0
VERTEX
8
Caja01
10
1.199890
20
0.148937
30
0.998563
70
192
0
VERTEX
8
Caja01
10
1.945494
20
0.110323
30
0.710692
70
192
0
VERTEX
8
Caja01
10
-1.403735
20
-0.198582
30
-2.109256
70
192
0
VERTEX
8
Caja01
10
-2.332754
20
-0.198582
30
-2.109256
70
192
0
VERTEX
8
Caja01
10
-2.332754
20
0.198582
30
-2.109256
70
192
0
VERTEX
8
Caja01
10
-1.403735
20
0.198582
30
-2.109256
70
192
0
VERTEX
8
Caja01
10
0.454304
20
-0.198582
30
-2.097623
70
192
0
VERTEX
8
Caja01
10
-0.474716
20
-0.198582
30
-2.097623
70
192
0
VERTEX
8
Caja01
10
-0.474716
20
0.198582
30
-2.097623
70
192
0
VERTEX
8
Caja01
10
0.454304
20
0.198582
30
-2.097623
70
192
0
VERTEX
8
Caja01
10
2.312343
20
-0.198582
30
-2.090548
70
192
0
VERTEX
8
Caja01
10
1.383323
20
-0.198582
30
-2.090548
70
192
0
VERTEX
8
Caja01
10
1.383323
20
0.198582
30
-2.090548
70
192
0
VERTEX
8
Caja01
10
2.312343
20
0.198582
30
-2.090548
70
192
0
VERTEX
8
Caja01
10
-0.941735
20
0.148937
30
0.075169
70
192
0
VERTEX
8
Caja01
10
-0.940477
20
-0.148937
30
0.076458
70
192
0
VERTEX
8
Caja01
10
0.929904
20
-0.148937
30
0.139522
70
192
0
VERTEX
8
Caja01
10
0.929674
20
0.148937
30
0.139522
70
192
0
VERTEX
8
Caja01
10
-1.744616
20
-0.198582
30
0.490532
70
192
0
VERTEX
8
Caja01
10
-0.862425
20
-0.198582
30
0.508251
70
192
0
VERTEX
8
Caja01
10
0.011643
20
-0.198582
30
0.895742
70
192
0
VERTEX
8
Caja01
10
0.866366
20
-0.198582
30
0.530727
70
192
0
VERTEX
8
Caja01
10
1.747092
20
-0.198582
30
0.490050
70
192
0
VERTEX
8
Caja01
10
-1.744616
20
0.198582
30
0.490532
70
192
0
VERTEX
8
Caja01
10
-0.867457
20
0.198582
30
0.503093
70
192
0
VERTEX
8
Caja01
10
0.011643
20
0.198582
30
0.895742
70
192
0
VERTEX
8
Caja01
10
0.865450
20
0.198582
30
0.530727
70
192
0
VERTEX
8
Caja01
10
1.747091
20
0.198582
30
0.490050
70
192
0
VERTEX
8
Caja01
10
-1.024129
20
0.000000
30
-0.084533
70
192
0
VERTEX
8
Caja01
10
1.015621
20
0.000000
30
-0.008239
70
192
0
VERTEX
8
Caja01
10
2.206856
20
-0.000000
30
0.514549
70
192
0
VERTEX
8
Caja01
10
1.646350
20
-0.000000
30
0.962300
70
192
0
VERTEX
8
Caja01
10
0.641338
20
-0.000000
30
1.339175
70
192
0
VERTEX
8
Caja01
10
0.033492
20
-0.000000
30
1.500200
70
192
0
VERTEX
8
Caja01
10
-0.626159
20
-0.000000
30
1.390979
70
192
0
VERTEX
8
Caja01
10
-1.622537
20
-0.000000
30
1.040006
70
192
0
VERTEX
8
Caja01
10
-2.174936
20
-0.000000
30
0.549086
70
192
0
VERTEX
8
Caja01
10
-1.867470
20
-0.198582
30
-1.084099
70
192
0
VERTEX
8
Caja01
10
-2.332754
20
0.000000
30
-0.908986
70
192
0
VERTEX
8
Caja01
10
-1.867470
20
0.198582
30
-1.084099
70
192
0
VERTEX
8
Caja01
10
-1.402186
20
0.000000
30
-1.259212
70
192
0
VERTEX
8
Caja01
10
-0.010206
20
-0.198582
30
-0.903170
70
192
0
VERTEX
8
Caja01
10
-0.474716
20
0.000000
30
-0.903170
70
192
0
VERTEX
8
Caja01
10
-0.010206
20
0.198582
30
-0.903170
70
192
0
VERTEX
8
Caja01
10
0.454304
20
0.000000
30
-0.903170
70
192
0
VERTEX
8
Caja01
10
1.847833
20
-0.198582
30
-1.036374
70
192
0
VERTEX
8
Caja01
10
1.383323
20
0.000000
30
-1.173115
70
192
0
VERTEX
8
Caja01
10
1.847833
20
0.198582
30
-1.036374
70
192
0
VERTEX
8
Caja01
10
2.312343
20
0.000000
30
-0.899632
70
192
0
VERTEX
8
Caja01
10
-1.836369
20
-0.198582
30
-0.177863
70
192
0
VERTEX
8
Caja01
10
-1.308909
20
-0.198582
30
0.465685
70
192
0
VERTEX
8
Caja01
10
-1.653057
20
-0.148937
30
0.902637
70
192
0
VERTEX
8
Caja01
10
-2.067356
20
-0.148937
30
0.534447
70
192
0
VERTEX
8
Caja01
10
-1.117912
20
-0.148937
30
-0.027067
70
192
0
VERTEX
8
Caja01
10
-0.337465
20
-0.198582
30
0.801027
70
192
0
VERTEX
8
Caja01
10
-0.685226
20
-0.148937
30
1.170297
70
192
0
VERTEX
8
Caja01
10
-0.004744
20
-0.198582
30
0.143785
70
192
0
VERTEX
8
Caja01
10
0.355915
20
-0.198582
30
0.802329
70
192
0
VERTEX
8
Caja01
10
0.028029
20
-0.148937
30
1.349085
70
192
0
VERTEX
8
Caja01
10
0.886954
20
-0.148937
30
0.188364
70
192
0
VERTEX
8
Caja01
10
1.297028
20
-0.198582
30
0.487970
70
192
0
VERTEX
8
Caja01
10
0.697595
20
-0.148937
30
1.137063
70
192
0
VERTEX
8
Caja01
10
1.822648
20
-0.198582
30
-0.127681
70
192
0
VERTEX
8
Caja01
10
2.091915
20
-0.148937
30
0.508425
70
192
0
VERTEX
8
Caja01
10
1.671535
20
-0.148937
30
0.844237
70
192
0
VERTEX
8
Caja01
10
-2.067356
20
0.148937
30
0.534447
70
192
0
VERTEX
8
Caja01
10
-1.653057
20
0.148937
30
0.902637
70
192
0
VERTEX
8
Caja01
10
-1.310167
20
0.198582
30
0.464395
70
192
0
VERTEX
8
Caja01
10
-1.836369
20
0.198582
30
-0.177863
70
192
0
VERTEX
8
Caja01
10
-0.686484
20
0.148937
30
1.169007
70
192
0
VERTEX
8
Caja01
10
-0.338723
20
0.198582
30
0.799738
70
192
0
VERTEX
8
Caja01
10
-0.893979
20
0.148937
30
0.140308
70
192
0
VERTEX
8
Caja01
10
0.028029
20
0.148937
30
1.349085
70
192
0
VERTEX
8
Caja01
10
0.355685
20
0.198582
30
0.802329
70
192
0
VERTEX
8
Caja01
10
-0.004744
20
0.198582
30
0.143785
70
192
0
VERTEX
8
Caja01
10
0.697366
20
0.148937
30
1.137063
70
192
0
VERTEX
8
Caja01
10
1.296799
20
0.198582
30
0.487970
70
192
0
VERTEX
8
Caja01
10
1.117834
20
0.148937
30
0.051622
70
192
0
VERTEX
8
Caja01
10
1.671535
20
0.148937
30
0.844237
70
192
0
VERTEX
8
Caja01
10
2.091915
20
0.148937
30
0.508425
70
192
0
VERTEX
8
Caja01
10
1.822648
20
0.198582
30
-0.127681
70
192
0
VERTEX
8
Caja01
10
-2.293300
20
0.000000
30
0.055666
70
192
0
VERTEX
8
Caja01
10
-1.306897
20
0.000000
30
-0.540520
70
192
0
VERTEX
8
Caja01
10
-0.612069
20
0.000000
30
-0.101284
70
192
0
VERTEX
8
Caja01
10
0.594633
20
0.000000
30
-0.082210
70
192
0
VERTEX
8
Caja01
10
1.291398
20
0.000000
30
-0.423180
70
192
0
VERTEX
8
Caja01
10
2.285971
20
0.000000
30
0.049371
70
192
0
VERTEX
8
Caja01
10
2.013985
20
-0.000000
30
0.738120
70
192
0
VERTEX
8
Caja01
10
1.167588
20
-0.000000
30
1.168761
70
192
0
VERTEX
8
Caja01
10
0.214380
20
-0.000000
30
1.455626
70
192
0
VERTEX
8
Caja01
10
-0.160348
20
-0.000000
30
1.477211
70
192
0
VERTEX
8
Caja01
10
-1.176152
20
-0.000000
30
1.244308
70
192
0
VERTEX
8
Caja01
10
-1.957927
20
-0.000000
30
0.800717
70
192
0
VERTEX
8
Caja01
10
-1.518507
20
-0.148937
30
-1.215434
70
192
0
VERTEX
8
Caja01
10
-2.216434
20
-0.148937
30
-0.952765
70
192
0
VERTEX
8
Caja01
10
-2.216434
20
0.148937
30
-0.952765
70
192
0
VERTEX
8
Caja01
10
-1.518507
20
0.148937
30
-1.215434
70
192
0
VERTEX
8
Caja01
10
0.338176
20
-0.148937
30
-0.903170
70
192
0
VERTEX
8
Caja01
10
-0.358588
20
-0.148937
30
-0.903170
70
192
0
VERTEX
8
Caja01
10
-0.358588
20
0.148937
30
-0.903170
70
192
0
VERTEX
8
Caja01
10
0.338176
20
0.148937
30
-0.903170
70
192
0
VERTEX
8
Caja01
10
2.196215
20
-0.148937
30
-0.933818
70
192
0
VERTEX
8
Caja01
10
1.499451
20
-0.148937
30
-1.138930
70
192
0
VERTEX
8
Caja01
10
1.499451
20
0.148937
30
-1.138930
70
192
0
VERTEX
8
Caja01
10
2.196215
20
0.148937
30
-0.933818
70
192
0
VERTEX
8
Caja01
10
-1.125460
20
0.148937
30
-0.034805
70
192
0
VERTEX
8
Caja01
10
-0.886431
20
-0.148937
30
0.148045
70
192
0
VERTEX
8
Caja01
10
1.119209
20
-0.148937
30
0.051622
70
192
0
VERTEX
8
Caja01
10
0.885580
20
0.148937
30
0.188364
70
192
0
VERTEX
8
Caja01
10
0
20
0
30
0
70
128
71
26
72
27
73
-28
0
VERTEX
8
Caja01
10
0
20
0
30
0
70
128
71
28
72
25
73
-26
0
VERTEX
8
Caja01
10
0
20
0
30
0
70
128
71
30
72
31
73
-32
0
VERTEX
8
Caja01
10
0
20
0
30
0
70
128
71
32
72
29
73
-30
0
VERTEX
8
Caja01
10
0
20
0
30
0
70
128
71
34
72
35
73
-36
0
VERTEX
8
Caja01
10
0
20
0
30
0
70
128
71
36
72
33
73
-34
0
VERTEX
8
Caja01
10
0
20
0
30
0
70
128
71
1
72
72
73
-41
0
VERTEX
8
Caja01
10
0
20
0
30
0
70
128
71
41
72
75
73
-1
0
VERTEX
8
Caja01
10
0
20
0
30
0
70
128
71
2
72
73
73
-41
0
VERTEX
8
Caja01
10
0
20
0
30
0
70
128
71
41
72
72
73
-2
0
VERTEX
8
Caja01
10
0
20
0
30
0
70
128
71
8
72
74
73
-41
0
VERTEX
8
Caja01
10
0
20
0
30
0
70
128
71
41
72
73
73
-8
0
VERTEX
8
Caja01
10
0
20
0
30
0
70
128
71
7
72
75
73
-41
0
VERTEX
8
Caja01
10
0
20
0
30
0
70
128
71
41
72
74
73
-7
0
VERTEX
8
Caja01
10
0
20
0
30
0
70
128
71
2
72
76
73
-42
0
VERTEX
8
Caja01
10
0
20
0
30
0
70
128
71
42
72
73
73
-2
0
VERTEX
8
Caja01
10
0
20
0
30
0
70
128
71
38
72
129
73
-42
0
VERTEX
8
Caja01
10
0
20
0
30
0
70
128
71
42
72
76
73
-38
0
VERTEX
8
Caja01
10
0
20
0
30
0
70
128
71
3
72
77
73
-42
0
VERTEX
8
Caja01
10
0
20
0
30
0
70
128
71
42
72
129
73
-3
0
VERTEX
8
Caja01
10
0
20
0
30
0
70
128
71
9
72
78
73
-42
0
VERTEX
8
Caja01
10
0
20
0
30
0
70
128
71
42
72
77
73
-9
0
VERTEX
8
Caja01
10
0
20
0
30
0
70
128
71
8
72
73
73
-42
0
VERTEX
8
Caja01
10
0
20
0
30
0
70
128
71
42
72
78
73
-8
0
VERTEX
8
Caja01
10
0
20
0
30
0
70
128
71
3
72
79
73
-43
0
VERTEX
8
Caja01
10
0
20
0
30
0
70
128
71
43
72
77
73
-3
0
VERTEX
8
Caja01
10
0
20
0
30
0
70
128
71
4
72
80
73
-43
0
VERTEX
8
Caja01
10
0
20
0
30
0
70
128
71
43
72
79
73
-4
0
VERTEX
8
Caja01
10
0
20
0
30
0
70
128
71
10
72
81
73
-43
0
VERTEX
8
Caja01
10
0
20
0
30
0
70
128
71
43
72
80
73
-10
0
VERTEX
8
Caja01
10
0
20
0
30
0
70
128
71
9
72
77
73
-43
0
VERTEX
8
Caja01
10
0
20
0
30
0
70
128
71
43
72
81
73
-9
0
VERTEX
8
Caja01
10
0
20
0
30
0
70
128
71
4
72
82
73
-44
0
VERTEX
8
Caja01
10
0
20
0
30
0
70
128
71
44
72
80
73
-4
0
VERTEX
8
Caja01
10
0
20
0
30
0
70
128
71
39
72
130
73
-44
0
VERTEX
8
Caja01
10
0
20
0
30
0
70
128
71
44
72
82
73
-39
0
VERTEX
8
Caja01
10
0
20
0
30
0
70
128
71
5
72
83
73
-44
0
VERTEX
8
Caja01
10
0
20
0
30
0
70
128
71
44
72
130
73
-5
0
VERTEX
8
Caja01
10
0
20
0
30
0
70
128
71
11
72
84
73
-44
0
VERTEX
8
Caja01
10
0
20
0
30
0
70
128
71
44
72
83
73
-11
0
VERTEX
8
Caja01
10
0
20
0
30
0
70
128
71
10
72
80
73
-44
0
VERTEX
8
Caja01
10
0
20
0
30
0
70
128
71
44
72
84
73
-10
0
VERTEX
8
Caja01
10
0
20
0
30
0
70
128
71
5
72
85
73
-45
0
VERTEX
8
Caja01
10
0
20
0
30
0
70
128
71
45
72
83
73
-5
0
VERTEX
8
Caja01
10
0
20
0
30
0
70
128
71
6
72
86
73
-45
0
VERTEX
8
Caja01
10
0
20
0
30
0
70
128
71
45
72
85
73
-6
0
VERTEX
8
Caja01
10
0
20
0
30
0
70
128
71
12
72
87
73
-45
0
VERTEX
8
Caja01
10
0
20
0
30
0
70
128
71
45
72
86
73
-12
0
VERTEX
8
Caja01
10
0
20
0
30
0
70
128
71
11
72
83
73
-45
0
VERTEX
8
Caja01
10
0
20
0
30
0
70
128
71
45
72
87
73
-11
0
VERTEX
8
Caja01
10
0
20
0
30
0
70
128
71
13
72
88
73
-46
0
VERTEX
8
Caja01
10
0
20
0
30
0
70
128
71
46
72
91
73
-13
0
VERTEX
8
Caja01
10
0
20
0
30
0
70
128
71
19
72
89
73
-46
0
VERTEX
8
Caja01
10
0
20
0
30
0
70
128
71
46
72
88
73
-19
0
VERTEX
8
Caja01
10
0
20
0
30
0
70
128
71
20
72
90
73
-46
0
VERTEX
8
Caja01
10
0
20
0
30
0
70
128
71
46
72
89
73
-20
0
VERTEX
8
Caja01
10
0
20
0
30
0
70
128
71
14
72
91
73
-46
0
VERTEX
8
Caja01
10
0
20
0
30
0
70
128
71
46
72
90
73
-14
0
VERTEX
8
Caja01
10
0
20
0
30
0
70
128
71
14
72
90
73
-47
0
VERTEX
8
Caja01
10
0
20
0
30
0
70
128
71
47
72
128
73
-14
0
VERTEX
8
Caja01
10
0
20
0
30
0
70
128
71
20
72
92
73
-47
0
VERTEX
8
Caja01
10
0
20
0
30
0
70
128
71
47
72
90
73
-20
0
VERTEX
8
Caja01
10
0
20
0
30
0
70
128
71
21
72
93
73
-47
0
VERTEX
8
Caja01
10
0
20
0
30
0
70
128
71
47
72
92
73
-21
0
VERTEX
8
Caja01
10
0
20
0
30
0
70
128
71
15
72
94
73
-47
0
VERTEX
8
Caja01
10
0
20
0
30
0
70
128
71
47
72
93
73
-15
0
VERTEX
8
Caja01
10
0
20
0
30
0
70
128
71
37
72
128
73
-47
0
VERTEX
8
Caja01
10
0
20
0
30
0
70
128
71
47
72
94
73
-37
0
VERTEX
8
Caja01
10
0
20
0
30
0
70
128
71
15
72
93
73
-48
0
VERTEX
8
Caja01
10
0
20
0
30
0
70
128
71
48
72
97
73
-15
0
VERTEX
8
Caja01
10
0
20
0
30
0
70
128
71
21
72
95
73
-48
0
VERTEX
8
Caja01
10
0
20
0
30
0
70
128
71
48
72
93
73
-21
0
VERTEX
8
Caja01
10
0
20
0
30
0
70
128
71
22
72
96
73
-48
0
VERTEX
8
Caja01
10
0
20
0
30
0
70
128
71
48
72
95
73
-22
0
VERTEX
8
Caja01
10
0
20
0
30
0
70
128
71
16
72
97
73
-48
0
VERTEX
8
Caja01
10
0
20
0
30
0
70
128
71
48
72
96
73
-16
0
VERTEX
8
Caja01
10
0
20
0
30
0
70
128
71
16
72
96
73
-49
0
VERTEX
8
Caja01
10
0
20
0
30
0
70
128
71
49
72
131
73
-16
0
VERTEX
8
Caja01
10
0
20
0
30
0
70
128
71
22
72
98
73
-49
0
VERTEX
8
Caja01
10
0
20
0
30
0
70
128
71
49
72
96
73
-22
0
VERTEX
8
Caja01
10
0
20
0
30
0
70
128
71
23
72
99
73
-49
0
VERTEX
8
Caja01
10
0
20
0
30
0
70
128
71
49
72
98
73
-23
0
VERTEX
8
Caja01
10
0
20
0
30
0
70
128
71
17
72
100
73
-49
0
VERTEX
8
Caja01
10
0
20
0
30
0
70
128
71
49
72
99
73
-17
0
VERTEX
8
Caja01
10
0
20
0
30
0
70
128
71
40
72
131
73
-49
0
VERTEX
8
Caja01
10
0
20
0
30
0
70
128
71
49
72
100
73
-40
0
VERTEX
8
Caja01
10
0
20
0
30
0
70
128
71
17
72
99
73
-50
0
VERTEX
8
Caja01
10
0
20
0
30
0
70
128
71
50
72
103
73
-17
0
VERTEX
8
Caja01
10
0
20
0
30
0
70
128
71
23
72
101
73
-50
0
VERTEX
8
Caja01
10
0
20
0
30
0
70
128
71
50
72
99
73
-23
0
VERTEX
8
Caja01
10
0
20
0
30
0
70
128
71
24
72
102
73
-50
0
VERTEX
8
Caja01
10
0
20
0
30
0
70
128
71
50
72
101
73
-24
0
VERTEX
8
Caja01
10
0
20
0
30
0
70
128
71
18
72
103
73
-50
0
VERTEX
8
Caja01
10
0
20
0
30
0
70
128
71
50
72
102
73
-18
0
VERTEX
8
Caja01
10
0
20
0
30
0
70
128
71
2
72
105
73
-51
0
VERTEX
8
Caja01
10
0
20
0
30
0
70
128
71
51
72
76
73
-2
0
VERTEX
8
Caja01
10
0
20
0
30
0
70
128
71
14
72
128
73
-51
0
VERTEX
8
Caja01
10
0
20
0
30
0
70
128
71
51
72
105
73
-14
0
VERTEX
8
Caja01
10
0
20
0
30
0
70
128
71
37
72
94
73
-51
0
VERTEX
8
Caja01
10
0
20
0
30
0
70
128
71
51
72
128
73
-37
0
VERTEX
8
Caja01
10
0
20
0
30
0
70
128
71
15
72
106
73
-51
0
VERTEX
8
Caja01
10
0
20
0
30
0
70
128
71
51
72
94
73
-15
0
VERTEX
8
Caja01
10
0
20
0
30
0
70
128
71
3
72
129
73
-51
0
VERTEX
8
Caja01
10
0
20
0
30
0
70
128
71
51
72
106
73
-3
0
VERTEX
8
Caja01
10
0
20
0
30
0
70
128
71
38
72
76
73
-51
0
VERTEX
8
Caja01
10
0
20
0
30
0
70
128
71
51
72
129
73
-38
0
VERTEX
8
Caja01
10
0
20
0
30
0
70
128
71
4
72
107
73
-52
0
VERTEX
8
Caja01
10
0
20
0
30
0
70
128
71
52
72
82
73
-4
0
VERTEX
8
Caja01
10
0
20
0
30
0
70
128
71
16
72
131
73
-52
0
VERTEX
8
Caja01
10
0
20
0
30
0
70
128
71
52
72
107
73
-16
0
VERTEX
8
Caja01
10
0
20
0
30
0
70
128
71
40
72
100
73
-52
0
VERTEX
8
Caja01
10
0
20
0
30
0
70
128
71
52
72
131
73
-40
0
VERTEX
8
Caja01
10
0
20
0
30
0
70
128
71
17
72
108
73
-52
0
VERTEX
8
Caja01
10
0
20
0
30
0
70
128
71
52
72
100
73
-17
0
VERTEX
8
Caja01
10
0
20
0
30
0
70
128
71
5
72
130
73
-52
0
VERTEX
8
Caja01
10
0
20
0
30
0
70
128
71
52
72
108
73
-5
0
VERTEX
8
Caja01
10
0
20
0
30
0
70
128
71
39
72
82
73
-52
0
VERTEX
8
Caja01
10
0
20
0
30
0
70
128
71
52
72
130
73
-39
0
VERTEX
8
Caja01
10
0
20
0
30
0
70
128
71
6
72
109
73
-53
0
VERTEX
8
Caja01
10
0
20
0
30
0
70
128
71
53
72
86
73
-6
0
VERTEX
8
Caja01
10
0
20
0
30
0
70
128
71
18
72
102
73
-53
0
VERTEX
8
Caja01
10
0
20
0
30
0
70
128
71
53
72
109
73
-18
0
VERTEX
8
Caja01
10
0
20
0
30
0
70
128
71
24
72
110
73
-53
0
VERTEX
8
Caja01
10
0
20
0
30
0
70
128
71
53
72
102
73
-24
0
VERTEX
8
Caja01
10
0
20
0
30
0
70
128
71
12
72
86
73
-53
0
VERTEX
8
Caja01
10
0
20
0
30
0
70
128
71
53
72
110
73
-12
0
VERTEX
8
Caja01
10
0
20
0
30
0
70
128
71
12
72
110
73
-54
0
VERTEX
8
Caja01
10
0
20
0
30
0
70
128
71
54
72
87
73
-12
0
VERTEX
8
Caja01
10
0
20
0
30
0
70
128
71
24
72
101
73
-54
0
VERTEX
8
Caja01
10
0
20
0
30
0
70
128
71
54
72
110
73
-24
0
VERTEX
8
Caja01
10
0
20
0
30
0
70
128
71
23
72
111
73
-54
0
VERTEX
8
Caja01
10
0
20
0
30
0
70
128
71
54
72
101
73
-23
0
VERTEX
8
Caja01
10
0
20
0
30
0
70
128
71
11
72
87
73
-54
0
VERTEX
8
Caja01
10
0
20
0
30
0
70
128
71
54
72
111
73
-11
0
VERTEX
8
Caja01
10
0
20
0
30
0
70
128
71
11
72
111
73
-55
0
VERTEX
8
Caja01
10
0
20
0
30
0
70
128
71
55
72
84
73
-11
0
VERTEX
8
Caja01
10
0
20
0
30
0
70
128
71
23
72
98
73
-55
0
VERTEX
8
Caja01
10
0
20
0
30
0
70
128
71
55
72
111
73
-23
0
VERTEX
8
Caja01
10
0
20
0
30
0
70
128
71
22
72
112
73
-55
0
VERTEX
8
Caja01
10
0
20
0
30
0
70
128
71
55
72
98
73
-22
0
VERTEX
8
Caja01
10
0
20
0
30
0
70
128
71
10
72
84
73
-55
0
VERTEX
8
Caja01
10
0
20
0
30
0
70
128
71
55
72
112
73
-10
0
VERTEX
8
Caja01
10
0
20
0
30
0
70
128
71
10
72
112
73
-56
0
VERTEX
8
Caja01
10
0
20
0
30
0
70
128
71
56
72
81
73
-10
0
VERTEX
8
Caja01
10
0
20
0
30
0
70
128
71
22
72
95
73
-56
0
VERTEX
8
Caja01
10
0
20
0
30
0
70
128
71
56
72
112
73
-22
0
VERTEX
8
Caja01
10
0
20
0
30
0
70
128
71
21
72
113
73
-56
0
VERTEX
8
Caja01
10
0
20
0
30
0
70
128
71
56
72
95
73
-21
0
VERTEX
8
Caja01
10
0
20
0
30
0
70
128
71
9
72
81
73
-56
0
VERTEX
8
Caja01
10
0
20
0
30
0
70
128
71
56
72
113
73
-9
0
VERTEX
8
Caja01
10
0
20
0
30
0
70
128
71
9
72
113
73
-57
0
VERTEX
8
Caja01
10
0
20
0
30
0
70
128
71
57
72
78
73
-9
0
VERTEX
8
Caja01
10
0
20
0
30
0
70
128
71
21
72
92
73
-57
0
VERTEX
8
Caja01
10
0
20
0
30
0
70
128
71
57
72
113
73
-21
0
VERTEX
8
Caja01
10
0
20
0
30
0
70
128
71
20
72
114
73
-57
0
VERTEX
8
Caja01
10
0
20
0
30
0
70
128
71
57
72
92
73
-20
0
VERTEX
8
Caja01
10
0
20
0
30
0
70
128
71
8
72
78
73
-57
0
VERTEX
8
Caja01
10
0
20
0
30
0
70
128
71
57
72
114
73
-8
0
VERTEX
8
Caja01
10
0
20
0
30
0
70
128
71
8
72
114
73
-58
0
VERTEX
8
Caja01
10
0
20
0
30
0
70
128
71
58
72
74
73
-8
0
VERTEX
8
Caja01
10
0
20
0
30
0
70
128
71
20
72
89
73
-58
0
VERTEX
8
Caja01
10
0
20
0
30
0
70
128
71
58
72
114
73
-20
0
VERTEX
8
Caja01
10
0
20
0
30
0
70
128
71
19
72
115
73
-58
0
VERTEX
8
Caja01
10
0
20
0
30
0
70
128
71
58
72
89
73
-19
0
VERTEX
8
Caja01
10
0
20
0
30
0
70
128
71
7
72
74
73
-58
0
VERTEX
8
Caja01
10
0
20
0
30
0
70
128
71
58
72
115
73
-7
0
VERTEX
8
Caja01
10
0
20
0
30
0
70
128
71
7
72
115
73
-59
0
VERTEX
8
Caja01
10
0
20
0
30
0
70
128
71
59
72
75
73
-7
0
VERTEX
8
Caja01
10
0
20
0
30
0
70
128
71
19
72
88
73
-59
0
VERTEX
8
Caja01
10
0
20
0
30
0
70
128
71
59
72
115
73
-19
0
VERTEX
8
Caja01
10
0
20
0
30
0
70
128
71
13
72
104
73
-59
0
VERTEX
8
Caja01
10
0
20
0
30
0
70
128
71
59
72
88
73
-13
0
VERTEX
8
Caja01
10
0
20
0
30
0
70
128
71
1
72
75
73
-59
0
VERTEX
8
Caja01
10
0
20
0
30
0
70
128
71
59
72
104
73
-1
0
VERTEX
8
Caja01
10
0
20
0
30
0
70
128
71
2
72
72
73
-60
0
VERTEX
8
Caja01
10
0
20
0
30
0
70
128
71
60
72
116
73
-2
0
VERTEX
8
Caja01
10
0
20
0
30
0
70
128
71
1
72
117
73
-60
0
VERTEX
8
Caja01
10
0
20
0
30
0
70
128
71
60
72
72
73
-1
0
VERTEX
8
Caja01
10
0
20
0
30
0
70
128
71
26
72
25
73
60
0
VERTEX
8
Caja01
10
0
20
0
30
0
70
128
71
117
72
26
73
60
0
VERTEX
8
Caja01
10
0
20
0
30
0
70
128
71
25
72
116
73
60
0
VERTEX
8
Caja01
10
0
20
0
30
0
70
128
71
1
72
104
73
-61
0
VERTEX
8
Caja01
10
0
20
0
30
0
70
128
71
61
72
117
73
-1
0
VERTEX
8
Caja01
10
0
20
0
30
0
70
128
71
13
72
118
73
-61
0
VERTEX
8
Caja01
10
0
20
0
30
0
70
128
71
61
72
104
73
-13
0
VERTEX
8
Caja01
10
0
20
0
30
0
70
128
71
27
72
26
73
61
0
VERTEX
8
Caja01
10
0
20
0
30
0
70
128
71
118
72
27
73
61
0
VERTEX
8
Caja01
10
0
20
0
30
0
70
128
71
26
72
117
73
61
0
VERTEX
8
Caja01
10
0
20
0
30
0
70
128
71
13
72
91
73
-62
0
VERTEX
8
Caja01
10
0
20
0
30
0
70
128
71
62
72
118
73
-13
0
VERTEX
8
Caja01
10
0
20
0
30
0
70
128
71
14
72
119
73
-62
0
VERTEX
8
Caja01
10
0
20
0
30
0
70
128
71
62
72
91
73
-14
0
VERTEX
8
Caja01
10
0
20
0
30
0
70
128
71
28
72
27
73
62
0
VERTEX
8
Caja01
10
0
20
0
30
0
70
128
71
119
72
28
73
62
0
VERTEX
8
Caja01
10
0
20
0
30
0
70
128
71
27
72
118
73
62
0
VERTEX
8
Caja01
10
0
20
0
30
0
70
128
71
14
72
105
73
-63
0
VERTEX
8
Caja01
10
0
20
0
30
0
70
128
71
63
72
119
73
-14
0
VERTEX
8
Caja01
10
0
20
0
30
0
70
128
71
2
72
116
73
-63
0
VERTEX
8
Caja01
10
0
20
0
30
0
70
128
71
63
72
105
73
-2
0
VERTEX
8
Caja01
10
0
20
0
30
0
70
128
71
25
72
28
73
63
0
VERTEX
8
Caja01
10
0
20
0
30
0
70
128
71
116
72
25
73
63
0
VERTEX
8
Caja01
10
0
20
0
30
0
70
128
71
28
72
119
73
63
0
VERTEX
8
Caja01
10
0
20
0
30
0
70
128
71
4
72
79
73
-64
0
VERTEX
8
Caja01
10
0
20
0
30
0
70
128
71
64
72
120
73
-4
0
VERTEX
8
Caja01
10
0
20
0
30
0
70
128
71
3
72
121
73
-64
0
VERTEX
8
Caja01
10
0
20
0
30
0
70
128
71
64
72
79
73
-3
0
VERTEX
8
Caja01
10
0
20
0
30
0
70
128
71
30
72
29
73
64
0
VERTEX
8
Caja01
10
0
20
0
30
0
70
128
71
121
72
30
73
64
0
VERTEX
8
Caja01
10
0
20
0
30
0
70
128
71
29
72
120
73
64
0
VERTEX
8
Caja01
10
0
20
0
30
0
70
128
71
3
72
106
73
-65
0
VERTEX
8
Caja01
10
0
20
0
30
0
70
128
71
65
72
121
73
-3
0
VERTEX
8
Caja01
10
0
20
0
30
0
70
128
71
15
72
122
73
-65
0
VERTEX
8
Caja01
10
0
20
0
30
0
70
128
71
65
72
106
73
-15
0
VERTEX
8
Caja01
10
0
20
0
30
0
70
128
71
31
72
30
73
65
0
VERTEX
8
Caja01
10
0
20
0
30
0
70
128
71
122
72
31
73
65
0
VERTEX
8
Caja01
10
0
20
0
30
0
70
128
71
30
72
121
73
65
0
VERTEX
8
Caja01
10
0
20
0
30
0
70
128
71
15
72
97
73
-66
0
VERTEX
8
Caja01
10
0
20
0
30
0
70
128
71
66
72
122
73
-15
0
VERTEX
8
Caja01
10
0
20
0
30
0
70
128
71
16
72
123
73
-66
0
VERTEX
8
Caja01
10
0
20
0
30
0
70
128
71
66
72
97
73
-16
0
VERTEX
8
Caja01
10
0
20
0
30
0
70
128
71
32
72
31
73
66
0
VERTEX
8
Caja01
10
0
20
0
30
0
70
128
71
123
72
32
73
66
0
VERTEX
8
Caja01
10
0
20
0
30
0
70
128
71
31
72
122
73
66
0
VERTEX
8
Caja01
10
0
20
0
30
0
70
128
71
16
72
107
73
-67
0
VERTEX
8
Caja01
10
0
20
0
30
0
70
128
71
67
72
123
73
-16
0
VERTEX
8
Caja01
10
0
20
0
30
0
70
128
71
4
72
120
73
-67
0
VERTEX
8
Caja01
10
0
20
0
30
0
70
128
71
67
72
107
73
-4
0
VERTEX
8
Caja01
10
0
20
0
30
0
70
128
71
29
72
32
73
67
0
VERTEX
8
Caja01
10
0
20
0
30
0
70
128
71
120
72
29
73
67
0
VERTEX
8
Caja01
10
0
20
0
30
0
70
128
71
32
72
123
73
67
0
VERTEX
8
Caja01
10
0
20
0
30
0
70
128
71
6
72
85
73
-68
0
VERTEX
8
Caja01
10
0
20
0
30
0
70
128
71
68
72
124
73
-6
0
VERTEX
8
Caja01
10
0
20
0
30
0
70
128
71
5
72
125
73
-68
0
VERTEX
8
Caja01
10
0
20
0
30
0
70
128
71
68
72
85
73
-5
0
VERTEX
8
Caja01
10
0
20
0
30
0
70
128
71
34
72
33
73
68
0
VERTEX
8
Caja01
10
0
20
0
30
0
70
128
71
125
72
34
73
68
0
VERTEX
8
Caja01
10
0
20
0
30
0
70
128
71
33
72
124
73
68
0
VERTEX
8
Caja01
10
0
20
0
30
0
70
128
71
5
72
108
73
-69
0
VERTEX
8
Caja01
10
0
20
0
30
0
70
128
71
69
72
125
73
-5
0
VERTEX
8
Caja01
10
0
20
0
30
0
70
128
71
17
72
126
73
-69
0
VERTEX
8
Caja01
10
0
20
0
30
0
70
128
71
69
72
108
73
-17
0
VERTEX
8
Caja01
10
0
20
0
30
0
70
128
71
35
72
34
73
69
0
VERTEX
8
Caja01
10
0
20
0
30
0
70
128
71
126
72
35
73
69
0
VERTEX
8
Caja01
10
0
20
0
30
0
70
128
71
34
72
125
73
69
0
VERTEX
8
Caja01
10
0
20
0
30
0
70
128
71
17
72
103
73
-70
0
VERTEX
8
Caja01
10
0
20
0
30
0
70
128
71
70
72
126
73
-17
0
VERTEX
8
Caja01
10
0
20
0
30
0
70
128
71
18
72
127
73
-70
0
VERTEX
8
Caja01
10
0
20
0
30
0
70
128
71
70
72
103
73
-18
0
VERTEX
8
Caja01
10
0
20
0
30
0
70
128
71
36
72
35
73
70
0
VERTEX
8
Caja01
10
0
20
0
30
0
70
128
71
127
72
36
73
70
0
VERTEX
8
Caja01
10
0
20
0
30
0
70
128
71
35
72
126
73
70
0
VERTEX
8
Caja01
10
0
20
0
30
0
70
128
71
18
72
109
73
-71
0
VERTEX
8
Caja01
10
0
20
0
30
0
70
128
71
71
72
127
73
-18
0
VERTEX
8
Caja01
10
0
20
0
30
0
70
128
71
6
72
124
73
-71
0
VERTEX
8
Caja01
10
0
20
0
30
0
70
128
71
71
72
109
73
-6
0
VERTEX
8
Caja01
10
0
20
0
30
0
70
128
71
33
72
36
73
71
0
VERTEX
8
Caja01
10
0
20
0
30
0
70
128
71
124
72
33
73
71
0
VERTEX
8
Caja01
10
0
20
0
30
0
70
128
71
36
72
127
73
71
0
SEQEND
8
Caja01
0
ENDSEC
0
EOF
